<?xml version="1.0" encoding="UTF-8"?>
<svg width="36px" height="36px" viewBox="0 0 36 36" version="1.1" xmlns="http://www.w3.org/2000/svg" xmlns:xlink="http://www.w3.org/1999/xlink">
    <!-- Generator: Sketch 61.2 (89653) - https://sketch.com -->
    <title>编组 20</title>
    <desc>Created with Sketch.</desc>
    <g id="页面-1" stroke="none" stroke-width="1" fill="none" fill-rule="evenodd">
        <g id="编组-20">
            <rect id="矩形备份-99" fill="#003B6A" opacity="0.85" x="0" y="0" width="36" height="36" rx="4"></rect>
            <g id="编组-9备份-11" opacity="0.3" transform="translate(4.000000, 5.000000)">
                <path d="M15.5253293,2.43656757 C15.2497317,2.43656757 14.9435122,2.34462162 14.9435122,2.09943243 C14.9435122,1.85424324 15.1884878,1.6397027 14.7904024,1.27191892 C14.3923171,0.904135135 14.2698293,0.904135135 13.9942317,0.904135135 C13.7186341,0.904135135 13.3817927,1.02672973 13.3817927,1.02672973 C13.3817927,1.02672973 12.7999756,1.45581081 12.3100244,1.45581081 C11.8200732,1.45581081 10.9932805,1.33321622 10.3502195,1.02672973 C9.70715854,0.720243243 9.06409756,0.536351351 8.7272561,0.229864865 C8.39041463,-0.0766216216 7.56362195,-0.0766216216 7.13491463,0.229864865 C6.70620732,0.536351351 6.03252439,0.904135135 5.51195122,0.904135135 C4.99137805,0.904135135 4.34831707,0.536351351 4.16458537,0.383108108 C3.98085366,0.229864865 3.85836585,0.168567568 3.73587805,0.168567568 C3.61339024,0.168567568 2.90908537,0.229864865 2.81721951,0.229864865 C2.72535366,0.229864865 2.54162195,0.658945946 2.60286585,0.750891892 C2.66410976,0.842837838 2.81721951,0.965432432 2.81721951,1.08802703 C2.81721951,1.21062162 2.29664634,1.48645946 2.35789024,1.60905405 C2.41913415,1.73164865 2.4497561,1.97683784 2.60286585,2.09943243 C2.75597561,2.22202703 2.75597561,2.52851351 2.75597561,2.62045946 C2.75597561,2.71240541 2.60286585,2.95759459 2.60286585,3.14148649 C2.60286585,3.32537838 2.69473171,3.41732432 2.75597561,3.47862162 C2.81721951,3.53991892 2.78659756,3.99964865 2.87846341,4.15289189 C2.97032927,4.30613514 3.24592683,4.49002703 3.30717073,4.49002703 C3.36841463,4.49002703 3.55214634,4.70456757 3.73587805,4.79651351 C3.91960976,4.88845946 4.04209756,4.91910811 4.16458537,5.103 C4.28707317,5.28689189 4.59329268,5.53208108 4.80764634,5.40948649 C5.022,5.28689189 5.17510976,5.13364865 5.23635366,5.01105405 C5.29759756,4.88845946 5.51195122,4.88845946 5.63443902,4.88845946 C5.75692683,4.88845946 6.2775,5.07235135 6.36936585,5.28689189 C6.46123171,5.50143243 6.70620732,5.71597297 6.92056098,5.71597297 C7.13491463,5.71597297 7.37989024,5.65467568 7.56362195,5.65467568 C7.74735366,5.65467568 7.6554878,5.53208108 7.93108537,5.40948649 C8.20668293,5.28689189 8.39041463,5.28689189 8.51290244,5.28689189 C8.63539024,5.28689189 8.75787805,5.40948649 8.8497439,5.40948649 C8.94160976,5.40948649 9.15596341,5.28689189 9.21720732,5.28689189 C9.27845122,5.28689189 9.21720732,5.37883784 9.21720732,5.47078378 C9.21720732,5.56272973 9.21720732,5.71597297 9.21720732,5.83856757 C9.21720732,5.9202973 9.1457561,6.01224324 9.00285366,6.11440541 L8.94160976,6.45154054 C8.94160976,6.83975676 8.94160976,7.07472973 8.94160976,7.15645946 C8.94160976,7.27905405 8.69663415,7.83072973 8.60476829,7.98397297 C8.51290244,8.13721622 8.17606098,8.99537838 8.02295122,9.30186486 C7.86984146,9.60835135 7.6554878,10.0680811 7.25740244,10.160027 C6.85931707,10.251973 6.1550122,10.0987297 6.06314634,10.0987297 C5.97128049,10.0987297 5.57319512,9.76159459 5.45070732,9.76159459 C5.32821951,9.76159459 4.56267073,9.66964865 4.40956098,9.82289189 C4.25645122,9.97613514 3.91960976,10.160027 3.73587805,10.160027 C3.55214634,10.160027 3.24592683,10.1906757 3.12343902,10.0987297 C3.00095122,10.0067838 2.23540244,9.639 2.05167073,9.54705405 C1.86793902,9.45510811 1.2555,9.17927027 1.1330122,9.17927027 C1.01052439,9.17927027 0.520573171,9.11797297 0.428707317,9.30186486 C0.336841463,9.48575676 0.459329268,9.85354054 0.367463415,9.97613514 C0.275597561,10.0987297 0.183731707,10.3745676 0.183731707,10.5584595 C0.183731707,10.7423514 0.24497561,11.5392162 0.122487805,11.7844054 C2.41757833e-14,12.0295946 2.41757833e-14,13.1942432 2.41757833e-14,13.6846216 C2.41757833e-14,14.0115405 2.41757833e-14,14.5427838 2.41757833e-14,15.2783514 L2.41757833e-14,17.7915405 C0.0408292683,17.955 0.0816585366,18.0367297 0.122487805,18.0367297 C0.183731707,18.0367297 3.06219512,18.3432162 3.21530488,18.3432162 C3.36841463,18.3432162 3.49090244,18.2819189 4.01147561,18.3432162 C4.35852439,18.3840811 5.09345122,18.4862432 6.2162561,18.6497027 C6.31832927,18.8744595 6.43060976,18.9664054 6.55309756,18.9255405 C6.73682927,18.8642432 6.88993902,18.5577568 7.01242683,18.5577568 C7.09408537,18.5577568 7.21657317,18.5271081 7.37989024,18.4658108 C7.46154878,18.3432162 7.54320732,18.2308378 7.62486585,18.1286757 C7.70652439,18.0265135 7.81880488,17.9856486 7.96170732,18.0060811 L8.17606098,17.7302432 C8.15564634,17.5872162 8.14543902,17.4748378 8.14543902,17.3931081 C8.14543902,17.2705135 8.14543902,16.9333784 8.11481707,16.8107838 C8.08419512,16.6881892 7.68610976,16.0139189 7.5942439,15.7687297 C7.50237805,15.5235405 7.07367073,14.8492703 7.01242683,14.5121351 C6.95118293,14.175 6.95118293,13.9298108 6.79807317,13.6846216 C6.64496341,13.4394324 6.3387439,12.4893243 6.2162561,12.3054324 C6.09376829,12.1215405 5.97128049,11.8457027 5.97128049,11.7231081 C5.97128049,11.6005135 5.91003659,11.4166216 6.06314634,11.3553243 C6.2162561,11.294027 6.18563415,11.3553243 6.2162561,11.4166216 C6.24687805,11.4779189 6.36936585,11.8150541 6.36936585,11.8763514 C6.36936585,11.9376486 6.49185366,12.1521892 6.55309756,12.2134865 C6.61434146,12.2747838 6.55309756,12.5812703 6.70620732,12.7038649 C6.85931707,12.8264595 7.01242683,13.041 7.07367073,13.1329459 C7.13491463,13.2248919 7.19615854,13.2555405 7.31864634,13.2555405 C7.44113415,13.2555405 7.56362195,12.8571081 7.5942439,12.7038649 C7.62486585,12.5506216 7.77797561,12.3973784 7.77797561,12.3054324 C7.77797561,12.2134865 7.90046341,12.0295946 7.93108537,11.9989459 C7.96170732,11.9682973 8.02295122,12.0295946 8.02295122,12.1215405 C8.02295122,12.2134865 7.93108537,12.519973 7.86984146,12.6119189 C7.80859756,12.7038649 7.68610976,13.1942432 7.68610976,13.1942432 C7.68610976,13.1942432 7.93108537,13.2555405 8.02295122,13.2555405 C8.11481707,13.2555405 9.12534146,15.0331622 9.33969512,15.4009459 C9.55404878,15.7687297 9.61529268,16.1365135 9.61529268,16.2897568 C9.61529268,16.443 9.49280488,16.5655946 9.70715854,16.6575405 C9.9215122,16.7494865 10.1664878,16.8107838 10.3502195,17.0253243 C10.5339512,17.2398649 11.0239024,17.9141351 11.0239024,18.1286757 C11.0239024,18.3432162 11.0239024,19.3546216 11.0239024,19.4465676 C11.0239024,19.5385135 11.2995,19.9369459 11.3913659,20.0901892 C11.4832317,20.2434324 12.1262927,20.7644595 12.3100244,20.8870541 C12.4937561,21.0096486 12.6162439,21.4080811 12.6774878,21.591973 C12.7387317,21.7758649 12.7999756,22.3275405 13.0449512,22.5420811 C13.2899268,22.7566216 13.779878,23.3695946 13.779878,23.4615405 C13.779878,23.5228378 13.9227805,23.7169459 14.2085854,24.0438649 C14.2085854,24.3299189 14.2085854,24.5546757 14.2085854,24.7181351 C14.2085854,24.9633243 13.9942317,25.1472162 14.2085854,25.3617568 C14.422939,25.5762973 14.5148049,26.1586216 14.5148049,26.3425135 C14.5148049,26.5264054 14.422939,26.9861351 14.5148049,27.1087297 C14.5760488,27.1904595 14.6679146,27.3232703 14.7904024,27.5071622 C15.4436707,27.5684595 15.8111341,27.5991081 15.8927927,27.5991081 C16.0152805,27.5991081 16.5052317,27.1087297 16.6889634,26.9861351 C16.8726951,26.8635405 17.0564268,26.8635405 17.2707805,26.8635405 C17.4851341,26.8635405 18.189439,26.7102973 18.4344146,26.5264054 C18.6793902,26.3425135 18.7406341,26.3425135 18.9856098,26.3425135 C19.2305854,26.3425135 19.3224512,26.3118649 19.5674268,26.1586216 C19.8124024,26.0053784 19.6592927,25.7601892 19.8430244,25.6682432 C20.0267561,25.5762973 21.6803415,25.0552703 21.8334512,24.993973 C21.9355244,24.9531081 22.1600854,24.8407297 22.5071341,24.6568378 C22.4254756,24.4320811 22.4254756,24.2481892 22.5071341,24.1051622 C22.629622,23.8906216 22.8133537,23.9519189 23.1195732,23.768027 C23.4257927,23.5841351 23.9157439,23.247 24.1607195,23.1550541 C24.4056951,23.0631081 24.6812927,23.3389459 24.8956463,23.247 C25.11,23.1550541 25.079378,22.4807838 25.2631098,22.3581892 C25.4468415,22.2355946 25.9980366,22.2662432 26.2123902,22.0210541 C26.4267439,21.7758649 26.334878,21.500027 26.5186098,21.4080811 C26.7023415,21.3161351 27.2229146,21.1322432 27.2229146,21.0096486 C27.2229146,20.8870541 27.1616707,20.366027 27.2229146,20.0901892 C27.2841585,19.8143514 27.621,19.845 27.7128659,19.7224054 C27.8047317,19.5998108 27.9884634,19.0787838 28.1109512,18.8642432 C28.233439,18.6497027 28.4784146,18.1593243 28.4784146,18.0060811 C28.4784146,17.9039189 28.3763415,17.811973 28.1721951,17.7302432 C27.7230732,17.1172703 27.4372683,16.8107838 27.3147805,16.8107838 C27.1310488,16.8107838 26.334878,16.964027 26.1511463,16.8107838 C25.9674146,16.6575405 25.5999512,16.2284595 25.5387073,16.0445676 C25.497878,15.921973 25.4468415,15.7891622 25.3855976,15.6461351 L25.3855976,14.8799189 L25.3855976,14.6040811 C25.303939,14.6245135 25.2324878,14.6653784 25.1712439,14.7266757 C25.079378,14.8186216 24.8956463,15.2170541 24.8956463,15.2170541 C24.8956463,15.2170541 24.5281829,15.6154865 24.3750732,15.7687297 C24.2219634,15.921973 23.9463659,16.5349459 23.885122,16.5962432 C23.823878,16.6575405 22.6908659,16.964027 22.5071341,16.964027 C22.3234024,16.964027 21.6803415,16.8720811 21.5272317,16.8107838 C21.374122,16.7494865 20.9147927,16.4123514 20.7923049,16.1671622 C20.6698171,15.921973 20.3942195,15.5235405 20.3942195,15.4622432 C20.3942195,15.4009459 20.0267561,14.696027 20.0267561,14.6040811 C20.0267561,14.5121351 19.4143171,13.9298108 19.4143171,13.8685135 C19.4143171,13.8072162 19.1080976,13.6233243 18.9856098,13.4394324 C18.863122,13.2555405 18.7100122,12.9184054 18.7100122,12.7038649 C18.7100122,12.4893243 18.4344146,11.9989459 18.4344146,11.9376486 C18.4344146,11.8763514 18.6181463,11.8457027 18.801878,11.7844054 C18.9856098,11.7231081 19.1387195,11.6005135 19.1999634,11.6005135 C19.2612073,11.6005135 19.5368049,11.6005135 19.7205366,11.6005135 C19.9042683,11.6005135 20.0267561,11.7537568 20.1492439,11.8763514 C20.2717317,11.9989459 20.6698171,12.7651622 20.7923049,13.0103514 C20.9147927,13.2555405 21.0985244,13.4394324 21.2210122,13.562027 C21.3435,13.6846216 21.7109634,13.6846216 21.8334512,13.6846216 C21.955939,13.6846216 22.1396707,14.1137027 22.4152683,14.1137027 C22.6908659,14.1137027 23.3339268,14.6040811 23.5482805,14.6040811 C23.7626341,14.6040811 24.1607195,14.4814865 24.466939,14.2669459 C24.7731585,14.0524054 25.2324878,13.9298108 25.3855976,13.9298108 C25.4876707,13.9298108 25.7122317,14.1954324 26.0592805,14.7266757 C26.1205244,14.931 26.2430122,15.0638108 26.4267439,15.1251081 C26.6104756,15.1864054 27.0391829,15.2170541 27.7128659,15.2170541 C28.1007439,15.1557568 28.3559268,15.1251081 28.4784146,15.1251081 C28.6009024,15.1251081 28.9479512,15.1761892 29.519561,15.2783514 L29.7645366,15.2170541 C29.7645366,14.6858108 29.7645366,14.3691081 29.7645366,14.2669459 C29.7645366,14.1647838 30.0095122,14.0115405 30.4994634,13.8072162 L30.6525732,13.6233243 L30.6525732,13.1329459 C30.5505,12.9490541 30.4994634,12.806027 30.4994634,12.7038649 C30.4994634,12.5506216 30.162622,12.1215405 30.101378,12.1215405 C30.0401341,12.1215405 29.6420488,12.0295946 29.519561,11.8763514 C29.4379024,11.7741892 29.2031341,11.5596486 28.8152561,11.2327297 L28.5702805,10.8955946 L28.6927683,10.773 C29.0398171,10.4869459 29.2337561,10.2826216 29.2745854,10.160027 C29.3154146,10.0374324 29.3154146,9.92505405 29.2745854,9.82289189 L29.0908537,9.48575676 C28.7438049,9.44489189 28.5702805,9.42445946 28.5702805,9.42445946 C28.5702805,9.42445946 28.5090366,9.38359459 28.3865488,9.30186486 C28.3048902,8.91364865 28.264061,8.66845946 28.264061,8.5662973 C28.264061,8.46413514 28.1824024,8.31089189 28.0190854,8.10656757 C28.1824024,7.80008108 28.264061,7.62640541 28.264061,7.58554054 C28.264061,7.54467568 28.1824024,7.47316216 28.0190854,7.371 C27.9578415,7.28927027 27.9272195,7.21775676 27.9272195,7.15645946 C27.9272195,7.06451351 28.1415732,6.54348649 28.264061,6.35959459 C28.3457195,6.237 28.3150976,5.98159459 28.1721951,5.59337838 L28.1109512,5.103 C28.0497073,5.02127027 28.0190854,4.94975676 28.0190854,4.88845946 C28.0190854,4.82716216 27.7843171,4.74543243 27.3147805,4.64327027 C27.0289756,4.47981081 26.8656585,4.37764865 26.8248293,4.33678378 C26.7635854,4.27548649 26.4573659,4.06094595 26.3042561,4.06094595 C26.1511463,4.06094595 25.8755488,4.06094595 25.8143049,4.06094595 C25.753061,4.06094595 25.2324878,3.87705405 25.1712439,3.87705405 C25.11,3.87705405 24.7731585,3.60121622 24.6506707,3.60121622 C24.5281829,3.60121622 24.466939,3.69316216 24.2832073,3.69316216 C24.1607195,3.69316216 23.9157439,3.77489189 23.5482805,3.93835135 C23.3645488,4.20397297 23.2012317,4.38786486 23.0583293,4.49002703 C22.9154268,4.59218919 22.6704512,4.74543243 22.3234024,4.94975676 L21.6190976,5.19494595 C21.1291463,5.33797297 20.8535488,5.40948649 20.7923049,5.40948649 C20.731061,5.40948649 20.4962927,5.27667568 20.088,5.01105405 C20.0063415,4.80672973 19.9246829,4.68413514 19.8430244,4.64327027 C19.7613659,4.60240541 19.5061829,4.55132432 19.0774756,4.49002703 C18.9754024,4.16310811 18.9243659,3.97921622 18.9243659,3.93835135 C18.9243659,3.87705405 18.7712561,3.81575676 18.7100122,3.75445946 C18.6487683,3.69316216 18.220061,3.53991892 18.220061,3.47862162 C18.220061,3.41732432 18.3731707,3.17213514 18.3731707,3.04954054 C18.3731707,2.96781081 18.3731707,2.82478378 18.3731707,2.62045946 L18.1588171,2.55916216 C17.9750854,2.64089189 17.8525976,2.72262162 17.7913537,2.80435135 C17.6994878,2.92694595 17.4238902,3.26408108 17.2707805,3.26408108 C17.1176707,3.26408108 16.6277195,3.38667568 16.5664756,3.38667568 C16.5052317,3.38667568 16.0459024,3.08018919 16.0459024,2.98824324 C16.0459024,2.92694595 15.9438293,2.80435135 15.7396829,2.62045946 C15.7805122,2.49786486 15.709061,2.43656757 15.5253293,2.43656757 Z" id="路径-5" fill="#FFFFFF"></path>
                <path d="M15.7396829,2.62045946 C15.4742927,2.90651351 15.3415976,3.04954054 15.3415976,3.04954054 C15.3415976,3.04954054 15.5559512,3.29472973 15.5559512,3.57056757 C15.5559512,3.75445946 15.5559512,3.98943243 15.5559512,4.27548649 C15.7805122,4.725 15.8927927,4.94975676 15.8927927,4.94975676 C15.8927927,4.94975676 16.2602561,5.86921622 16.2602561,5.96116216 C16.2602561,6.05310811 16.9033171,6.32894595 16.9033171,6.45154054 C16.9033171,6.53327027 16.8726951,6.69672973 16.8114512,6.94191892 L16.5052317,7.34035135 L16.3827439,7.67748649 L16.5052317,7.98397297 L16.5052317,8.22916216 L16.9951829,8.68889189 L16.9951829,9.05667568 L17.4545122,9.05667568 C17.4340976,9.261 17.4851341,9.36316216 17.607622,9.36316216 C17.7301098,9.36316216 17.8730122,9.42445946 18.0363293,9.54705405 L18.2506829,9.94548649 L18.2506829,10.3132703 L18.2506829,10.6810541 L18.4956585,11.0488378 L18.7712561,11.4779189 L18.9856098,11.6924595" id="路径-6" stroke="#5786B1" stroke-width="0.5"></path>
                <path d="M18.7712561,12.9490541 L18.2506829,12.9490541 C18.0669512,12.7651622 17.964878,12.6425676 17.9444634,12.5812703 C17.9240488,12.519973 17.8219756,12.4791081 17.6382439,12.4586757 L16.3827439,12.3973784 C16.0765244,12.3973784 15.8927927,12.3973784 15.8315488,12.3973784 C15.7703049,12.3973784 15.6274024,12.2952162 15.4028415,12.0908919 L14.0248537,10.8649459 C13.4736585,10.5175946 13.1572317,10.3337027 13.0755732,10.3132703 C12.9939146,10.2928378 12.7285244,10.1293784 12.2794024,9.82289189 L11.5444756,9.639 C11.0341098,9.84332432 10.7483049,9.94548649 10.687061,9.94548649 C10.5951951,9.94548649 10.074622,9.94548649 9.9827561,10.0374324 C9.89089024,10.1293784 9.82964634,10.251973 9.86026829,10.3745676 C9.88068293,10.4562973 10.044,10.6401892 10.3502195,10.9262432 C10.3910488,11.1305676 10.4114634,11.2531622 10.4114634,11.294027 C10.4114634,11.3348919 10.3093902,11.385973 10.1052439,11.4472703 C9.94192683,11.5698649 9.81943902,11.6311622 9.73778049,11.6311622 C9.61529268,11.6311622 9.49280488,11.5698649 9.40093902,11.6924595 C9.33969512,11.7741892 9.21720732,11.907 9.03347561,12.0908919 C8.93140244,12.2134865 8.82932927,12.2441351 8.7272561,12.1828378 C8.62518293,12.1215405 8.41082927,12.0704595 8.08419512,12.0295946" id="路径-7" stroke="#5786B1" stroke-width="0.5"></path>
                <path d="M7.4717561,10.0987297 C7.63507317,10.5278108 7.73714634,10.8240811 7.77797561,10.9875405 C7.81880488,11.151 7.88004878,11.3961892 7.96170732,11.7231081 L8.02295122,11.9989459" id="路径-8" stroke="#5786B1" stroke-width="0.5"></path>
                <path d="M8.02295122,11.907 C8.22709756,11.5800811 8.32917073,11.3961892 8.32917073,11.3553243 C8.32917073,11.294027 8.26792683,11.1101351 8.42103659,10.8649459 C8.52310976,10.7014865 8.59456098,10.4971622 8.63539024,10.251973 L8.63539024,10.0374324 C8.55373171,10.1191622 8.48228049,10.160027 8.42103659,10.160027 C8.32917073,10.160027 8.14543902,10.2213243 8.20668293,10.0987297 C8.26792683,9.97613514 8.42103659,9.97613514 8.42103659,9.88418919 C8.42103659,9.79224324 8.20668293,9.82289189 8.20668293,9.639 C8.20668293,9.45510811 8.35979268,9.14862162 8.42103659,9.14862162 C8.48228049,9.14862162 8.69663415,9.14862162 8.63539024,9.30186486 C8.57414634,9.45510811 8.57414634,9.7002973 8.63539024,9.639 C8.67621951,9.59813514 8.73746341,9.54705405 8.81912195,9.48575676 C8.81912195,9.3222973 8.81912195,9.24056757 8.81912195,9.24056757 C8.81912195,9.24056757 8.75787805,9.02602703 8.81912195,8.96472973 C8.88036585,8.90343243 8.69663415,8.96472973 8.69663415,8.87278378 C8.69663415,8.81148649 8.67621951,8.73997297 8.63539024,8.65824324 L8.32917073,8.59694595" id="路径-9" stroke="#5786B1" stroke-width="0.5"></path>
                <path d="M8.81912195,8.96472973 C9.18658537,9.23035135 9.39073171,9.36316216 9.43156098,9.36316216 C9.49280488,9.36316216 9.52342683,9.36316216 9.70715854,9.36316216 C9.82964634,9.36316216 10.2073171,9.17927027 10.8401707,8.81148649 L11.2076341,8.53564865 C12.105878,8.08613514 12.6162439,7.82051351 12.7387317,7.73878378 C12.9224634,7.61618919 13.198061,7.40164865 13.2593049,7.21775676 C13.3205488,7.03386486 13.2593049,6.88062162 13.2593049,6.57413514 C13.2593049,6.26764865 13.2593049,5.77727027 13.3511707,5.68532432 C13.4124146,5.62402703 13.5961463,5.52186486 13.9023659,5.37883784 L14.3004512,4.98040541 C14.5045976,4.98040541 14.678122,4.98040541 14.8210244,4.98040541 C15.035378,4.98040541 15.2803537,4.98040541 15.3415976,4.98040541 C15.4028415,4.98040541 15.3415976,5.22559459 15.4640854,5.22559459 C15.5457439,5.22559459 15.6988537,5.14386486 15.9234146,4.98040541" id="路径-10" stroke="#5786B1" stroke-width="0.5"></path>
                <path d="M11.2382561,8.5662973 C11.2995,8.68889189 11.330122,8.78083784 11.330122,8.84213514 C11.330122,8.90343243 11.3607439,9.05667568 11.4219878,9.30186486 L11.5444756,9.639" id="路径-11" stroke="#5786B1" stroke-width="0.5"></path>
                <path d="M9.12534146,6.05310811 C9.207,6.07354054 9.27845122,6.07354054 9.33969512,6.05310811 C9.40093902,6.03267568 9.52342683,5.96116216 9.70715854,5.83856757 L9.73778049,5.34818919 L9.95213415,5.28689189 L10.1971098,5.47078378 L10.5645732,5.34818919 C10.7278902,5.28689189 10.850378,5.25624324 10.9320366,5.25624324 C11.0136951,5.25624324 11.1872195,5.31754054 11.4526098,5.44013514 C11.6771707,5.50143243 11.8813171,5.49121622 12.0650488,5.40948649 C12.2487805,5.32775676 12.4937561,5.23581081 12.7999756,5.13364865 L13.1368171,5.07235135 L13.3817927,5.103 L13.9636098,5.0417027 L14.1473415,5.103" id="路径-12" stroke="#5786B1" stroke-width="0.5"></path>
                <path d="M21.7109634,16.9027297 C21.955939,17.1683514 22.1192561,17.3624595 22.2009146,17.4850541 C22.3234024,17.6689459 22.5377561,17.8221892 22.6602439,17.8221892 C22.7827317,17.8221892 23.2726829,17.9141351 23.4564146,17.9141351 C23.5789024,17.9141351 23.9157439,17.9345676 24.466939,17.9754324 C24.7323293,17.9958649 24.8650244,18.0265135 24.8650244,18.0673784 C24.8650244,18.1082432 24.9058537,18.2104054 24.9875122,18.3738649 L24.8650244,19.5078649 L24.6812927,20.3966757 L24.1300976,20.7644595 C23.0277073,21.2548378 22.3642317,21.5306757 22.1396707,21.591973 C21.8028293,21.6839189 20.3023537,22.1742973 20.118622,22.2355946 C19.9348902,22.2968919 19.6286707,22.2049459 19.5061829,22.3581892 C19.3836951,22.5114324 19.0774756,22.8485676 19.0162317,22.9711622 C18.9549878,23.0937568 18.3425488,23.9519189 18.2506829,24.0132162 C18.189439,24.0540811 18.0057073,24.237973 17.6994878,24.5648919 L17.3932683,24.7794324 C17.2911951,24.8407297 17.2401585,24.8407297 17.2401585,24.7794324 C17.2401585,24.7181351 17.2401585,24.4831622 17.2401585,24.0745135 C17.1993293,23.9723514 17.1585,23.9212703 17.1176707,23.9212703 C17.0564268,23.9212703 16.6583415,23.7067297 16.6583415,23.7067297 C16.6583415,23.7067297 16.1377683,23.5228378 16.0152805,23.4308919 C15.8927927,23.3389459 15.5865732,23.1550541 15.4640854,23.1550541 C15.3415976,23.1550541 15.1578659,23.2163514 15.066,23.2163514 C14.9741341,23.2163514 14.8516463,23.0937568 14.7291585,23.1550541 C14.6066707,23.2163514 14.4841829,23.4308919 14.4841829,23.6147838 C14.4841829,23.7986757 14.4841829,23.9519189 14.3923171,24.0745135 C14.3310732,24.1562432 14.2698293,24.1971081 14.2085854,24.1971081" id="路径-13" stroke="#5786B1" stroke-width="0.5"></path>
                <path d="M22.1396707,21.591973 C22.3846463,22.1436486 22.5377561,22.4705676 22.599,22.5727297 C22.6908659,22.725973 22.8439756,22.7566216 22.9358415,22.9098649 C22.9970854,23.012027 23.1093659,23.2572162 23.2726829,23.6454324" id="路径-14" stroke="#5786B1" stroke-width="0.5"></path>
            </g>
        </g>
    </g>
</svg>