<?xml version="1.0" encoding="UTF-8"?>
<svg width="36px" height="36px" viewBox="0 0 36 36" version="1.1" xmlns="http://www.w3.org/2000/svg" xmlns:xlink="http://www.w3.org/1999/xlink">
    <!-- Generator: Sketch 61.2 (89653) - https://sketch.com -->
    <title>编组 34</title>
    <desc>Created with Sketch.</desc>
    <g id="页面-1" stroke="none" stroke-width="1" fill="none" fill-rule="evenodd">
        <g id="编组-34">
            <rect id="矩形备份-26" fill="#696969" opacity="0.85" x="0" y="0" width="36" height="36" rx="4"></rect>
            <g id="编组-22" opacity="0.3" transform="translate(1.000000, 6.000000)">
                <path d="M20.88,0 C20.88,0.16 20.96,0.32 21.12,0.48 C21.28,0.64 21.52,0.8 21.84,0.96 L22.32,0.72 L22.8,0.96 C22.32,1.28 22.08,1.44 22.08,1.44 C22.08,1.44 21.6,2.16 21.6,2.16 C21.6,2.16 21.76,2.4 22.08,2.88 L22.56,3.36 L22.56,3.84 L22.32,4.08 L22.56,4.56 L22.56,5.28 C21.6,6.4 20.96,7.04 20.64,7.2 C20.16,7.44 18.72,8.16 18.24,8.16 C17.92,8.16 17.52,8.16 17.04,8.16 L16.08,8.64 L16.32,9.36 C16.32,9.52 16.4,9.68 16.56,9.84 C16.8,10.08 17.52,11.04 17.52,11.04 C17.52,11.04 17.52,11.44 17.52,12.24 C16.88,12.4 16.56,12.56 16.56,12.72 C16.56,12.88 16.32,13.12 15.84,13.44 L15.6,12.72 L15.12,12.24 L14.64,11.76 L13.92,11.28 L13.92,12.24 L13.68,12.72 L13.68,13.2 L14.16,13.92 L14.88,14.64 L15.36,16.08 L15.36,16.32 L14.88,16.08 L14.16,15.36 L13.92,14.88 L13.92,14.4 L12.96,13.44 C13.12,12.96 13.2,12.64 13.2,12.48 C13.2,12.24 13.44,11.04 13.2,11.04 C13.04,11.04 12.88,10.72 12.72,10.08 L12.24,10.32 C11.92,10.48 11.76,10.56 11.76,10.56 C11.76,10.56 11.68,10.4 11.52,10.08 L11.52,9.36 L11.04,8.88 L10.8,8.4 L10.32,7.92 L9.84,7.68 L9.12,7.92 L8.64,8.16 L8.4,8.64 L7.44,9.36 L6.72,10.08 L6,10.56 L5.76,11.28 L5.76,12 L5.52,12.72 L5.28,13.2 L4.8,13.44 L4.32,12.72 L3.36,11.04 L2.88,9.12 L2.88,8.16 L2.16,8.4 L1.68,7.92 L1.2,7.2 L0.48,6.96 L0,6.48 L0,0 L20.88,0 Z" id="路径-47" fill="#FFFFFF"></path>
                <path d="M6,13.2 C5.84,13.2 5.76,13.28 5.76,13.44 C5.76,13.68 5.76,14.16 6,14.4 C6.24,14.64 6.48,14.16 6.48,13.92 C6.48,13.76 6.32,13.52 6,13.2 Z" id="路径-48" fill="#FFFFFF"></path>
                <polygon id="路径-49" fill="#FFFFFF" points="12 14.88 13.2 16.08 13.68 16.8 14.64 18.48 15.6 19.2 16.08 19.2 16.32 18.24 15.84 17.76 15.36 17.28 15.12 16.8 14.4 16.08 13.92 16.08 12.96 14.88"></polygon>
                <path d="M17.76,16.32 L17.52,16.32 L17.52,16.8 L17.76,17.52 C17.92,17.84 18,18 18,18 C18,18 18.32,18 18.96,18 L19.68,18.48 C20,18.64 20.16,18.64 20.16,18.48 C20.16,18.32 20.32,18.08 20.64,17.76 L20.88,17.04 L21.12,16.56 L20.88,15.84 L20.88,15.6 L21.36,14.88 L21.12,14.64 L20.64,14.16 C20.16,14.48 19.92,14.72 19.92,14.88 C19.92,15.04 19.6,15.28 18.96,15.6 L18.48,15.84 L17.76,16.32 Z" id="路径-50" fill="#FFFFFF"></path>
                <polygon id="路径-51" fill="#FFFFFF" points="16.08 19.44 16.8 19.44 17.52 19.68 18 19.68 18.72 19.44 19.44 19.92 19.92 20.16 19.68 20.4 18.96 20.4 18 20.16 17.04 20.16 16.56 19.92"></polygon>
                <path d="M22.32,24.96 C22.8,24.64 23.04,24.32 23.04,24 C23.04,23.68 23.2,23.52 23.52,23.52 C24.16,22.88 24.56,22.56 24.72,22.56 C24.96,22.56 25.2,22.8 25.44,22.8 C25.68,22.8 26.16,22.08 26.4,22.08 C26.64,22.08 27.36,21.84 27.6,21.84 C27.84,21.84 28.32,21.6 28.32,22.08 C28.32,22.56 28.08,23.04 28.08,23.04 C28.08,23.04 29.04,23.52 29.28,23.76 C29.52,24 30,24.24 30.24,24 C30.4,23.84 30.56,23.2 30.72,22.08 C30.72,21.92 30.8,21.76 30.96,21.6 C31.2,21.36 31.68,22.8 31.68,22.8 C31.68,22.8 32.16,23.04 32.16,23.52 C32.16,23.84 32.32,24.16 32.64,24.48 L33.12,24.96 L22.32,24.96 Z" id="路径-52" fill="#FFFFFF"></path>
                <path d="M26.4,17.52 C26.56,17.2 26.72,17.04 26.88,17.04 C27.04,17.04 27.28,17.2 27.6,17.52 L27.84,18.24 L28.08,18.24 C28.56,17.6 28.88,17.36 29.04,17.52 C29.2,17.68 29.84,17.92 30.96,18.24 C31.92,18.56 32.4,18.8 32.4,18.96 C32.4,19.12 32.56,19.36 32.88,19.68 L33.36,20.16 L33.84,20.88 C33.84,21.04 33.76,21.12 33.6,21.12 C33.36,21.12 32.88,20.64 32.64,20.4 C32.4,20.16 32.16,20.4 31.92,20.16 C31.68,19.92 31.44,20.64 31.2,20.64 C30.96,20.64 29.76,20.64 29.76,20.4 C29.76,20.24 29.6,20.08 29.28,19.92 C29.28,19.28 29.2,18.96 29.04,18.96 C28.88,18.96 28.4,18.88 27.6,18.72 C27.6,18.24 27.52,18 27.36,18 C27.2,18 27.04,17.92 26.88,17.76 L26.4,17.52 Z" id="路径-53" fill="#FFFFFF"></path>
                <path d="M24,0 C23.84,0.32 23.76,0.48 23.76,0.48 C23.76,0.48 24.24,0.48 24.48,0.48 C24.72,0.48 24.48,0.96 24.48,0.96 C24.48,0.96 24.48,1.12 24.48,1.44 L24.48,1.92 L24.72,2.4 L25.2,1.92 C25.52,1.6 25.68,1.44 25.68,1.44 C25.68,1.44 25.6,1.2 25.44,0.72 L25.44,0.48 L25.2,0.24 L24.96,0 L24,0 Z" id="路径-54" fill="#FFFFFF"></path>
                <path d="M29.76,0 C29.76,0.48 29.68,0.72 29.52,0.72 C29.36,0.72 29.2,0.8 29.04,0.96 L28.8,0.96 L28.56,1.2 C28.4,1.52 28.24,1.68 28.08,1.68 C27.92,1.68 27.68,1.68 27.36,1.68 C27.2,1.68 27.04,1.76 26.88,1.92 C26.72,2.08 26.56,2.24 26.4,2.4 L25.92,2.64 L26.64,2.64 C26.8,2.32 26.96,2.16 27.12,2.16 C27.28,2.16 27.44,2.16 27.6,2.16 L28.08,2.16 L28.08,2.64 L28.8,2.4 L29.28,2.16 L29.76,1.92 L30.24,1.2 L30.24,0.72 L30.48,0.24 L30.48,0 L29.76,0 Z" id="路径-55" fill="#FFFFFF"></path>
                <path d="M25.92,2.88 C26.08,3.2 26.16,3.36 26.16,3.36 C26.16,3.36 26.16,3.52 26.16,3.84 L26.64,3.6 L26.64,3.12 L26.64,2.88" id="路径-56" fill="#FFFFFF"></path>
                <polygon id="路径-57" fill="#FFFFFF" points="26.88 2.88 27.12 3.12 27.36 2.88 27.6 2.64 27.84 2.4 27.36 2.4 26.88 2.64"></polygon>
                <line x1="22.8" y1="7.44" x2="22.32" y2="8.16" id="路径-58" stroke="#979797" stroke-width="0.5" fill="#FFFFFF"></line>
                <line x1="21.84" y1="8.64" x2="21.6" y2="9.36" id="路径-59" stroke="#979797" stroke-width="0.5" fill="#FFFFFF"></line>
                <line x1="21.36" y1="10.08" x2="21.36" y2="11.04" id="路径-60" stroke="#979797" stroke-width="0.5" fill="#FFFFFF"></line>
                <line x1="21.36" y1="12" x2="21.12" y2="12.72" id="路径-61" stroke="#979797" stroke-width="0.5" fill="#FFFFFF"></line>
                <line x1="20.64" y1="13.68" x2="19.92" y2="14.16" id="路径-62" stroke="#979797" stroke-width="0.5" fill="#FFFFFF"></line>
                <line x1="18.72" y1="14.64" x2="18" y2="14.88" id="路径-63" stroke="#979797" stroke-width="0.5" fill="#FFFFFF"></line>
                <line x1="17.04" y1="13.92" x2="16.56" y2="13.44" id="路径-64" stroke="#979797" stroke-width="0.5" fill="#FFFFFF"></line>
                <line x1="17.28" y1="12.72" x2="18" y2="12.24" id="路径-65" stroke="#979797" stroke-width="0.5" fill="#FFFFFF"></line>
                <line x1="18" y1="11.28" x2="17.76" y2="10.56" id="路径-66" stroke="#979797" stroke-width="0.5" fill="#FFFFFF"></line>
                <polygon id="路径-67" fill="#FFFFFF" points="21.84 18.72 21.6 18.24 21.36 17.76 21.6 17.28 21.84 16.8 22.32 16.32 23.28 16.56 23.76 16.56 23.76 16.8 23.28 16.8 22.8 16.8 22.32 16.8 22.08 17.04 22.08 17.28 22.08 17.52 22.56 17.28 23.04 17.28 22.8 17.52 22.56 17.76 22.56 18 22.8 18.24 23.28 18.96 23.04 19.2 22.8 18.96 22.56 18.72 22.32 18.48 22.08 18 22.08 18.72 21.84 19.2"></polygon>
                <polyline id="路径-68" stroke="#7F7F7F" stroke-width="0.5" points="0 4.56 0.48 3.84 0.96 3.6 1.44 3.12 1.68 2.64 1.92 1.92 2.4 1.2 2.88 1.2 3.6 1.2 3.84 0.96 4.32 1.44 5.04 1.68 5.28 2.64 5.28 3.36 5.28 3.84 6 4.32 6.48 4.32 7.2 4.8 7.92 5.04 8.88 5.52 9.12 5.28 9.36 5.28 9.6 5.28 9.84 5.28 10.32 5.28 10.56 5.52 10.56 5.76 11.52 5.52 11.76 5.28 12.24 5.04 12.48 5.28 12.72 5.28 12.96 5.04 13.2 5.52 13.2 6 13.2 6.24 12.96 6.72 12.96 6.96 13.44 7.2 13.44 7.68 13.68 7.92 14.16 8.16 14.4 8.16 14.64 7.68 15.12 7.68 15.6 7.68 15.84 7.44 16.08 7.44 16.56 7.68 16.56 7.92 17.04 8.16"></polyline>
                <path d="" id="路径-69" stroke="#979797" stroke-width="0.5"></path>
                <polyline id="路径-70" stroke="#7F7F7F" stroke-width="0.5" points="14.64 7.68 15.12 8.4 15.6 8.64 15.84 8.64 15.6 9.12 15.6 9.36 16.32 10.08 16.8 10.56 16.8 11.28 16.8 11.76 16.8 12 16.08 12.24 15.84 12.72 15.6 12.96"></polyline>
                <polyline id="路径-71" stroke="#7F7F7F" stroke-width="0.5" points="1.2 7.2 1.44 6.96 2.16 6.96 2.16 6.48 1.68 5.76 1.92 5.52 2.16 5.28 2.4 5.28 2.88 4.8 3.36 4.08 3.6 3.6 3.6 3.12 3.36 2.64 3.36 2.4 3.6 2.16 4.32 2.4 4.56 2.16 5.04 1.68"></polyline>
                <polyline id="路径-72" stroke="#7F7F7F" stroke-width="0.5" points="0 0.72 0.48 0.96 0.72 0.96 1.2 0.96 1.44 0.72 1.92 0.24 2.16 0.48 2.4 0.72 2.4 1.2 2.88 0.96 3.12 0.72 3.6 0.72 3.84 0.48 3.6 0.24 3.12 0"></polyline>
                <polyline id="路径-73" stroke="#7F7F7F" stroke-width="0.5" points="0.96 -3.41060513e-15 0.96 0.48 0.96 0.72 0.96 0.96"></polyline>
                <polyline id="路径-74" stroke="#7F7F7F" stroke-width="0.5" points="0 0.24 0.24 0.48 0.48 0.72 0.48 0.96"></polyline>
                <polyline id="路径-75" stroke="#7F7F7F" stroke-width="0.5" points="6 4.32 5.76 4.8 6 5.04 6.72 5.52 7.44 5.76 7.92 5.76 8.4 6 8.88 6 9.12 6 9.12 5.76 9.12 5.28"></polyline>
                <polyline id="路径-76" stroke="#7F7F7F" stroke-width="0.5" points="9.36 5.28 9.6 5.76 9.84 6 10.56 5.76"></polyline>
                <polyline id="路径-77" stroke="#7F7F7F" stroke-width="0.5" points="9.12 6 9.12 6.48 9.36 6.48 9.12 6.96 9.12 7.44 9.36 7.92"></polyline>
                <polyline id="路径-78" stroke="#7F7F7F" stroke-width="0.5" stroke-linecap="round" stroke-linejoin="round" points="9.12 6 9.6 6.24 9.84 6.48 10.08 6.48 10.8 6.72 10.56 7.2 10.32 7.44 10.8 7.68 11.04 7.92 11.28 7.2 11.52 6.96 11.76 6 12.24 5.76 12.72 5.52 12.72 5.28"></polyline>
                <line x1="11.04" y1="7.92" x2="10.8" y2="8.4" id="路径-79" stroke="#7F7F7F" stroke-width="0.5"></line>
                <polyline id="路径-80" stroke="#7F7F7F" stroke-width="0.5" points="14.16 8.16 13.92 8.4 13.68 8.64 13.2 8.88 12.96 9.12 12.72 9.36 12.96 9.84 13.2 10.08 13.2 10.56 13.2 11.04"></polyline>
                <polyline id="路径-81" stroke="#7F7F7F" stroke-width="0.5" points="13.92 8.4 14.4 9.12 14.4 9.6 14.4 9.84 15.12 9.6 15.6 9.84 15.84 10.32 16.08 10.8 15.84 11.04 14.88 11.28 14.64 11.76"></polyline>
                <polyline id="路径-82" stroke="#7F7F7F" stroke-width="0.5" points="13.2 11.04 13.68 11.76 13.44 12.48 13.2 13.44 13.68 14.16 13.92 14.4 14.4 14.64 14.88 14.64"></polyline>
                <polyline id="路径-83" stroke="#7F7F7F" stroke-width="0.5" points="17.76 16.32 18.24 16.56 18.72 16.56 19.2 16.56 19.68 16.32 19.92 15.84 20.16 15.36 20.64 15.12 21.12 15.12"></polyline>
            </g>
        </g>
    </g>
</svg>