<?xml version="1.0" encoding="UTF-8"?>
<svg width="36px" height="36px" viewBox="0 0 36 36" version="1.1" xmlns="http://www.w3.org/2000/svg" xmlns:xlink="http://www.w3.org/1999/xlink">
    <!-- Generator: Sketch 61.2 (89653) - https://sketch.com -->
    <title>编组 10</title>
    <desc>Created with Sketch.</desc>
    <g id="页面-1" stroke="none" stroke-width="1" fill="none" fill-rule="evenodd">
        <g id="2.27全球备份" transform="translate(-61.000000, -307.000000)">
            <g id="编组-10" transform="translate(61.000000, 307.000000)">
                <rect id="矩形备份-26" fill="#003B6A" opacity="0.85" x="0" y="0" width="36" height="36" rx="4"></rect>
                <g id="编组-17" opacity="0.3" transform="translate(3.000000, 4.000000)" fill="#FFFFFF">
                    <path d="M5.20223447,0.729 L6.12563447,1.0692 L6.75743447,1.3122 L7.00043447,1.4094 L7.24343447,1.5552 L7.77803447,1.5552 C7.84283447,1.296 7.84283447,1.1664 7.77803447,1.1664 C7.71323447,1.1664 7.53503447,1.1664 7.24343447,1.1664 C7.30823447,0.972 7.30823447,0.8748 7.24343447,0.8748 C7.17863447,0.8748 6.96803447,0.7938 6.61163447,0.6318 L7.00043447,0.1944 L7.63223447,0 L8.21543447,0.1944 C8.28023447,0.5508 8.34503447,0.729 8.40983447,0.729 C8.47463447,0.729 8.68523447,0.729 9.04163447,0.729 L9.43043447,0.3888 L9.77063447,0.3888 L9.67343447,0.6804 L9.38183447,0.9234 L8.79863447,1.0206 L8.55563447,1.1178 L8.65283447,1.458 L8.94443447,1.5552 L9.33323447,1.5552 L9.57623447,1.4094 L9.72203447,1.2636 L10.1108345,1.3122 L10.2566345,1.0692 L10.2566345,0.9234 L10.0136345,0.8262 L10.0622345,0.5346 L10.2080345,0.3888 L10.8398345,0.3888 L11.2286345,0.3888 L11.2772345,0.5346 L10.9370345,0.8262 L10.9370345,0.972 L11.0342345,1.3608 C11.3582345,1.4256 11.5202345,1.4094 11.5202345,1.3122 C11.5202345,1.215 11.5202345,1.0692 11.5202345,0.8748 L11.8604345,0.5346 L12.4436345,0.3888 L13.0754345,0.2916 L13.8530345,0.5346 C13.9826345,0.6642 14.1284345,0.7938 14.2904345,0.9234 C14.5334345,1.1178 14.4362345,1.3608 14.4848345,1.458 C14.5172345,1.5228 14.6468345,1.5552 14.8736345,1.5552 C14.8736345,1.782 14.8250345,1.9278 14.7278345,1.9926 C14.5820345,2.0898 14.4362345,2.0412 14.2904345,2.0412 C14.1446345,2.0412 13.9988345,1.9926 13.9988345,2.0412 C13.9988345,2.0898 13.9502345,2.2842 13.9016345,2.3814 C13.8530345,2.4786 13.7558345,2.4786 13.6586345,2.4786 C13.5614345,2.4786 12.8324345,2.2842 12.7352345,2.2842 C12.6380345,2.2842 12.4436345,2.2842 12.4436345,2.187 C12.4436345,2.0898 12.6380345,1.9926 12.7352345,1.944 C12.8324345,1.8954 13.1726345,1.7496 13.2212345,1.701 C13.2698345,1.6524 13.3670345,1.5552 13.3670345,1.458 C13.3670345,1.3608 13.1726345,1.3122 13.0268345,1.2636 C12.8810345,1.215 12.2978345,1.2636 12.2006345,1.2636 C12.1034345,1.2636 11.9090345,1.6524 11.7632345,1.701 C11.6174345,1.7496 11.3258345,1.6524 11.2772345,1.7496 C11.2286345,1.8468 11.2772345,1.944 11.3258345,1.9926 C11.3744345,2.0412 11.4230345,2.2356 11.3258345,2.2356 C11.2286345,2.2356 11.0342345,2.187 11.0342345,2.2356 C11.0342345,2.2842 10.7912345,2.43 10.6940345,2.43 C10.5968345,2.43 10.4510345,2.43 10.4510345,2.3328 C10.4510345,2.2356 10.5482345,2.1384 10.4996345,2.0898 C10.4510345,2.0412 10.3538345,2.0412 10.2566345,2.0898 C10.1594345,2.1384 9.23603447,2.4786 9.04163447,2.673 C8.84723447,2.8674 8.50703447,2.9646 8.55563447,3.1104 C8.60423447,3.2562 8.65283447,3.4992 8.84723447,3.645 C8.97683447,3.7422 9.17123447,3.807 9.43043447,3.8394 C9.59243447,3.807 9.68963447,3.807 9.72203447,3.8394 C9.77063447,3.888 9.81923447,3.7422 9.81923447,3.9366 C9.81923447,4.131 9.86783447,4.7142 9.86783447,4.7142 C9.86783447,4.7142 10.0622345,4.7628 10.2080345,4.6656 C10.3538345,4.5684 10.4024345,4.2768 10.4996345,4.131 C10.5968345,3.9852 10.7912345,3.9852 10.8884345,3.9366 C10.9856345,3.888 11.2286345,3.888 11.2772345,3.7908 C11.3258345,3.6936 11.3258345,3.3048 11.3258345,3.2076 C11.3258345,3.1104 11.3258345,2.8188 11.3258345,2.7702 C11.3258345,2.7216 11.6174345,2.4786 11.7146345,2.43 C11.8118345,2.3814 12.0548345,2.4786 12.2006345,2.4786 C12.3464345,2.4786 12.5894345,2.673 12.6866345,2.673 C12.7514345,2.673 12.7838345,2.7054 12.7838345,2.7702 C12.7838345,2.997 12.7838345,3.1266 12.7838345,3.159 C12.7838345,3.2076 12.7838345,3.402 12.9296345,3.3534 C13.0754345,3.3048 13.4642345,3.0132 13.5614345,2.9646 C13.6586345,2.916 13.8044345,2.9646 13.8044345,2.9646 C13.8044345,2.9646 13.9016345,3.3048 13.8530345,3.4506 C13.8206345,3.5478 13.8368345,3.6936 13.9016345,3.888 C14.0312345,3.9204 14.1284345,3.9528 14.1932345,3.9852 C14.2904345,4.0338 14.4362345,4.131 14.4362345,4.1796 C14.4362345,4.2282 14.4362345,4.6656 14.3876345,4.7142 C14.3390345,4.7628 14.1446345,4.8114 14.0960345,4.86 C14.0474345,4.9086 13.9016345,4.9086 13.9502345,5.0058 C13.9988345,5.103 14.3876345,5.2002 14.4362345,5.2488 C14.4848345,5.2974 14.5820345,5.346 14.5820345,5.4432 C14.5820345,5.5404 14.5334345,5.6862 14.4848345,5.6862 C14.4362345,5.6862 14.0474345,5.6376 13.9988345,5.6376 C13.9502345,5.6376 13.6586345,5.5404 13.6100345,5.4918 C13.5614345,5.4432 13.4642345,5.346 13.5128345,5.2488 C13.5614345,5.1516 13.7072345,5.0544 13.7072345,4.9572 C13.7072345,4.86 13.6100345,4.7628 13.5128345,4.7628 C13.4156345,4.7628 13.3184345,4.9086 13.2212345,4.9572 C13.1240345,5.0058 12.8324345,5.0544 12.7838345,5.0544 C12.7352345,5.0544 12.4922345,4.8114 12.3950345,4.7628 C12.2978345,4.7142 12.0548345,4.6656 12.0062345,4.8114 C11.9576345,4.9572 12.1034345,5.103 12.1520345,5.1516 C12.2006345,5.2002 12.2492345,5.3946 12.1520345,5.4432 C12.0548345,5.4918 11.8118345,5.3946 11.7146345,5.4432 C11.6174345,5.4918 11.3258345,5.832 11.2286345,5.9292 C11.1314345,6.0264 10.4996345,6.4152 10.3538345,6.561 C10.2080345,6.7068 9.52763447,7.3386 9.43043447,7.4844 C9.33323447,7.6302 9.38183447,7.9218 9.23603447,8.019 C9.09023447,8.1162 8.70143447,8.3592 8.50703447,8.5536 C8.37743447,8.6832 8.19923447,8.8452 7.97243447,9.0396 C7.94003447,9.6552 7.92383447,9.963 7.92383447,9.963 C7.92383447,9.963 7.63223447,9.963 7.53503447,9.8658 C7.43783447,9.7686 7.24343447,9.5742 7.24343447,9.5742 C7.24343447,9.5742 7.29203447,9.3312 7.19483447,9.234 C7.13003447,9.1692 6.87083447,9.1368 6.41723447,9.1368 C5.51003447,9.234 5.00783447,9.3312 4.91063447,9.4284 C4.76483447,9.5742 4.18163447,10.2546 4.08443447,10.5948 C3.98723447,10.935 4.08443447,11.3724 4.27883447,11.4696 C4.47323447,11.5668 4.71623447,11.6154 4.95923447,11.5668 C5.20223447,11.5182 5.54243447,11.2752 5.73683447,11.1294 C5.93123447,10.9836 6.17423447,10.8864 6.22283447,10.8864 C6.27143447,10.8864 6.27143447,11.0808 6.27143447,11.178 C6.27143447,11.2752 6.02843447,11.6154 5.97983447,11.7126 C5.93123447,11.8098 5.97983447,11.907 6.07703447,11.907 C6.14183447,11.907 6.38483447,11.9394 6.80603447,12.0042 C6.83843447,12.1014 6.85463447,12.2148 6.85463447,12.3444 C6.85463447,12.5388 6.80603447,13.2192 6.80603447,13.2192 C6.80603447,13.2192 6.75743447,13.4136 6.90323447,13.4136 C7.04903447,13.4136 7.87523447,13.5594 7.97243447,13.5594 C8.06963447,13.5594 8.36123447,13.3164 8.45843447,13.1706 C8.55563447,13.0248 8.65283447,12.879 8.84723447,12.7818 C9.04163447,12.6846 9.62483447,12.9276 9.72203447,12.9276 C9.81923447,12.9276 9.91643447,13.2678 10.0136345,13.2678 C10.1108345,13.2678 10.2080345,13.3164 10.3538345,13.3164 C10.4510345,13.3164 10.6778345,13.284 11.0342345,13.2192 C11.0666345,13.1544 11.0990345,13.122 11.1314345,13.122 C11.1800345,13.122 11.5202345,13.2678 11.6174345,13.4622 C11.7146345,13.6566 12.0062345,13.9968 12.0062345,14.0454 C12.0062345,14.094 12.0548345,14.1912 12.2006345,14.1912 C12.2978345,14.1912 12.5408345,14.1912 12.9296345,14.1912 C13.0916345,14.2884 13.1726345,14.3532 13.1726345,14.3856 C13.1726345,14.4342 13.4642345,14.7258 13.4642345,14.823 C13.4642345,14.8878 13.4642345,15.0498 13.4642345,15.309 C13.3994345,15.4386 13.3994345,15.5196 13.4642345,15.552 C13.5614345,15.6006 13.7072345,15.6492 13.7558345,15.6492 C13.7882345,15.6492 13.9664345,15.7302 14.2904345,15.8922 C15.0356345,15.957 15.4568345,15.9894 15.5540345,15.9894 C15.6512345,15.9894 15.7808345,15.9894 15.9428345,15.9894 C16.1048345,16.1838 16.1858345,16.3134 16.1858345,16.3782 C16.1858345,16.4754 16.3802345,16.6212 16.5260345,16.6212 C16.6718345,16.6212 16.8176345,16.6698 16.8176345,16.8156 C16.8176345,16.9614 16.6232345,17.253 16.5746345,17.3502 C16.5260345,17.4474 16.0886345,18.0792 16.0886345,18.1278 C16.0886345,18.1764 16.0886345,18.4194 16.0886345,18.6624 C16.0886345,18.9054 16.0400345,19.197 16.0400345,19.44 C16.0400345,19.683 15.8942345,20.0232 15.7970345,20.169 C15.6998345,20.3148 15.3596345,20.4606 15.2624345,20.5092 C15.1652345,20.5578 14.8736345,20.4606 14.6792345,20.4606 C14.4848345,20.4606 14.2418345,20.412 14.2418345,20.5578 C14.2418345,20.7036 13.9988345,20.898 14.0960345,21.0438 C14.1932345,21.1896 14.3390345,21.6756 14.3390345,21.7728 C14.3390345,21.87 14.1446345,22.0158 14.0474345,22.2102 C13.9502345,22.4046 13.5128345,23.085 13.3670345,23.2794 C13.2212345,23.4738 12.8324345,23.6196 12.6380345,23.7168 C12.4436345,23.814 12.0062345,24.057 11.8118345,24.057 C11.6174345,24.057 11.6174345,24.2514 11.6174345,24.3486 C11.6174345,24.4458 11.6660345,24.3972 11.8604345,24.4458 C12.0548345,24.4944 11.9090345,24.5916 11.9090345,24.6888 C11.9090345,24.786 11.7146345,24.8832 11.6660345,24.9804 C11.6174345,25.0776 11.7632345,25.3692 11.8604345,25.3692 C11.9576345,25.3692 12.1520345,25.4178 12.2006345,25.4178 C12.2492345,25.4178 12.2978345,25.6122 12.2492345,25.758 C12.2006345,25.9038 12.1520345,26.1468 12.1520345,26.244 C12.1520345,26.3412 12.1520345,26.3412 12.2492345,26.4384 C12.3464345,26.5356 12.5408345,26.8272 12.5894345,26.8272 C12.6380345,26.8272 12.7352345,27.216 12.6866345,27.2646 C12.6380345,27.3132 12.2006345,27.3132 12.1520345,27.3132 C12.1034345,27.3132 11.6174345,27.1674 11.6174345,27.1674 C11.6174345,27.1674 11.0342345,26.5356 10.9856345,26.487 C10.9370345,26.4384 10.3538345,25.4664 10.3052345,25.4178 C10.2566345,25.3692 10.1594345,25.2234 10.1594345,24.9804 C10.1594345,24.7374 10.2566345,24.057 10.2566345,23.9598 C10.2566345,23.8626 9.77063447,23.571 9.77063447,23.4252 C9.77063447,23.328 9.77063447,23.1984 9.77063447,23.0364 C9.86783447,22.5504 9.91643447,22.2912 9.91643447,22.2588 C9.91643447,22.2102 9.67343447,22.113 9.67343447,22.0644 C9.67343447,22.0158 9.57623447,21.2868 9.57623447,21.1896 C9.57623447,21.1248 9.60863447,20.5416 9.67343447,19.44 C9.02543447,19.0512 8.68523447,18.8406 8.65283447,18.8082 C8.60423447,18.7596 8.21543447,18.7596 8.21543447,18.711 C8.21543447,18.6624 8.26403447,18.225 8.11823447,18.1764 C7.97243447,18.1278 7.00043447,16.9128 7.00043447,16.767 C7.00043447,16.6212 7.19483447,16.1838 7.19483447,16.0866 C7.19483447,15.9894 7.14623447,15.4062 7.14623447,15.4062 C7.14623447,15.4062 7.43783447,14.9688 7.53503447,14.9688 C7.59983447,14.9688 7.74563447,14.8878 7.97243447,14.7258 L7.82663447,13.9482 C7.66463447,13.851 7.56743447,13.8024 7.53503447,13.8024 C7.48643447,13.8024 6.75743447,13.851 6.70883447,13.851 C6.66023447,13.851 6.17423447,13.2678 6.17423447,13.2678 C6.17423447,13.2678 5.99603447,13.0572 5.63963447,12.636 L4.76483447,12.5388 C4.70003447,12.3444 4.66763447,12.2472 4.66763447,12.2472 C4.66763447,12.2472 4.52183447,12.0528 4.42463447,12.0528 C4.32743447,12.0528 4.23023447,12.0528 4.23023447,12.15 C4.23023447,12.2148 4.13303447,12.231 3.93863447,12.1986 C3.32303447,12.069 2.98283447,11.9718 2.91803447,11.907 C2.82083447,11.8098 2.38343447,11.3238 2.38343447,11.2266 C2.38343447,11.1618 2.39963447,11.0322 2.43203447,10.8378 C2.46443447,10.773 2.48063447,10.692 2.48063447,10.5948 C2.48063447,10.449 1.80023447,9.72 1.80023447,9.5742 C1.80023447,9.4284 1.70303447,9.1854 1.70303447,9.0396 C1.70303447,8.9424 1.67063447,8.829 1.60583447,8.6994 C1.44383447,8.6022 1.34663447,8.586 1.31423447,8.6508 C1.26563447,8.748 1.31423447,9.1854 1.31423447,9.2826 C1.31423447,9.3798 1.41143447,9.5256 1.50863447,9.6714 C1.60583447,9.8172 1.84883447,10.206 1.84883447,10.206 C1.84883447,10.206 1.99463447,10.449 1.89743447,10.5948 C1.80023447,10.7406 1.55723447,10.7892 1.46003447,10.7406 C1.36283447,10.692 0.779634474,9.72 0.731034474,9.5742 C0.682434474,9.4284 0.633834474,8.8938 0.682434474,8.7966 C0.731034474,8.6994 0.682434474,8.6022 0.682434474,8.505 C0.682434474,8.4078 0.390834474,8.3106 0.342234474,8.262 C0.293634474,8.2134 0.099234474,7.8732 0.099234474,7.8246 C0.099234474,7.776 0.050634474,7.6788 0.00203447403,7.6788 C-0.046565526,7.6788 0.779634474,4.9572 2.04323447,3.4506 C2.88563447,2.4462 3.93863447,1.539 5.20223447,0.729 Z" id="路径-43"></path>
                    <path d="M24.1076345,1.701 C24.1076345,1.7982 23.7674345,2.2842 23.6702345,2.2842 C23.5730345,2.2842 23.1842345,2.4786 23.0870345,2.7216 C22.9898345,2.9646 23.0870345,3.1104 23.2328345,3.2076 C23.3786345,3.3048 23.5730345,3.4506 23.6216345,3.4992 C23.6702345,3.5478 23.9132345,3.5964 24.1562345,3.5964 C24.3992345,3.5964 24.3020345,3.888 24.4964345,3.888 C24.6908345,3.888 24.9338345,3.6936 25.0310345,3.5964 C25.1282345,3.4992 25.1768345,2.8188 25.1768345,2.8188 C25.1768345,2.8188 24.1076345,1.6038 24.1076345,1.701 Z" id="路径-44"></path>
                    <path d="M25.8572345,3.6936 C25.6952345,3.9852 25.5818345,4.131 25.5170345,4.131 C25.4198345,4.131 24.4964345,4.131 24.3020345,4.131 C24.1076345,4.131 23.5244345,4.131 23.2814345,4.131 C23.0384345,4.131 22.7468345,4.617 22.7468345,4.7142 C22.7468345,4.8114 22.3580345,5.0544 22.2608345,5.0544 C22.1636345,5.0544 21.6776345,5.103 21.6776345,5.2002 C21.6776345,5.265 21.6452345,5.4432 21.5804345,5.7348 C21.7748345,5.7996 21.8720345,5.8644 21.8720345,5.9292 C21.8720345,6.0264 21.7748345,6.2694 21.6776345,6.2694 C21.5804345,6.2694 21.3860345,6.2694 21.1430345,6.2694 C20.9000345,6.2694 20.5598345,6.1236 20.4626345,6.3666 C20.3654345,6.6096 20.3168345,6.9012 20.3168345,7.1442 C20.3168345,7.3872 20.6570345,7.776 20.8514345,7.776 C21.0458345,7.776 21.5804345,7.8732 21.6776345,7.776 C21.7748345,7.6788 21.9692345,7.2414 22.1150345,7.1442 C22.2122345,7.0794 22.4228345,6.8526 22.7468345,6.4638 L23.2814345,6.3666 C23.4758345,6.2046 23.6054345,6.1074 23.6702345,6.075 C23.7350345,6.0426 23.7836345,6.0588 23.8160345,6.1236 C23.8484345,6.2856 23.8970345,6.3828 23.9618345,6.4152 C24.0266345,6.4476 24.3020345,6.642 24.7880345,6.9984 C24.8852345,7.0308 24.9338345,7.0956 24.9338345,7.1928 C24.9338345,7.3386 24.6908345,7.29 24.6908345,7.29 C24.6908345,7.29 24.3992345,7.2414 24.3992345,7.29 C24.3992345,7.3386 24.4964345,7.5816 24.6422345,7.6302 C24.7880345,7.6788 24.9824345,7.7274 25.1282345,7.6302 C25.2740345,7.533 25.3712345,7.3386 25.3712345,7.2414 C25.3712345,7.1442 25.4198345,6.9498 25.4198345,6.9498 C25.4198345,6.9498 24.8852345,6.4638 24.8852345,6.4638 C24.8852345,6.4638 24.4964345,6.318 24.4964345,6.2208 C24.4964345,6.1236 24.3506345,5.9292 24.4478345,5.832 C24.5450345,5.7348 24.7394345,5.832 24.8366345,5.832 C24.9338345,5.832 25.1282345,5.9292 25.1768345,5.9778 C25.2254345,6.0264 25.5170345,6.3666 25.6142345,6.4152 C25.7114345,6.4638 25.7600345,6.561 25.7600345,6.6096 C25.7600345,6.6582 25.7114345,7.047 25.7600345,7.0956 C25.8086345,7.1442 25.9544345,7.3386 26.0516345,7.4358 C26.1488345,7.533 26.3918345,7.6302 26.3918345,7.6302 C26.3918345,7.6302 26.4890345,7.4358 26.4890345,7.3386 C26.4890345,7.2414 26.4890345,6.8526 26.5862345,6.804 C26.6510345,6.7716 26.7806345,6.723 26.9750345,6.6582 C27.0074345,6.7554 27.0236345,6.8688 27.0236345,6.9984 C27.0236345,7.1928 27.0236345,7.3872 27.1694345,7.533 C27.3152345,7.6788 27.3152345,7.776 27.4610345,7.776 C27.5582345,7.776 27.8336345,7.776 28.2872345,7.776 C28.0280345,7.2576 27.8984345,6.9984 27.8984345,6.9984 C27.8984345,6.9984 27.4610345,7.1928 27.4610345,6.9984 C27.4610345,6.804 27.5582345,6.561 27.5582345,6.4638 C27.5582345,6.3666 27.4610345,6.1236 27.3152345,5.7348 C27.1694345,5.346 26.3918345,4.0824 26.2946345,3.9852 C26.2298345,3.9204 26.0840345,3.8232 25.8572345,3.6936 Z" id="路径-45"></path>
                    <path d="M28.6274345,8.991 C28.5302345,8.991 27.6068345,9.0882 27.4610345,9.0882 C27.3152345,9.0882 26.8292345,8.748 26.7806345,8.6508 C26.7320345,8.5536 26.5862345,8.505 26.4404345,8.505 C26.3432345,8.505 26.1326345,8.505 25.8086345,8.505 C25.8734345,8.7642 25.8734345,8.9262 25.8086345,8.991 C25.7114345,9.0882 25.4198345,8.8938 25.2740345,8.7966 C25.1768345,8.7318 24.7556345,8.6346 24.0104345,8.505 L24.0104345,7.6302 C23.8484345,7.6302 23.7026345,7.6302 23.5730345,7.6302 C23.3786345,7.6302 22.3580345,7.8246 22.2608345,7.8246 C22.1636345,7.8246 21.6776345,8.0676 21.5804345,8.0676 C21.5156345,8.0676 21.2240345,8.0676 20.7056345,8.0676 L20.0252345,8.3592 C20.0252345,8.3268 20.0252345,8.424 20.0252345,8.6508 C20.0252345,8.8776 19.9766345,9.1206 19.8794345,9.3798 L18.3242345,10.449 L18.4214345,10.9836 L18.7616345,11.1294 L18.7130345,11.5182 L18.4700345,11.6154 L18.4700345,12.879 C19.2476345,13.9158 19.6688345,14.4342 19.7336345,14.4342 C19.8308345,14.4342 20.0252345,14.5314 20.2196345,14.5314 C20.3492345,14.5314 20.6408345,14.5152 21.0944345,14.4828 L21.7748345,14.4342 C21.8072345,14.3046 21.8882345,14.2236 22.0178345,14.1912 C22.1474345,14.1588 22.3418345,14.1426 22.6010345,14.1426 L22.9412345,14.58 L23.9132345,14.58 C23.8484345,15.4224 23.8160345,15.8922 23.8160345,15.9894 C23.8160345,16.1352 24.8366345,17.5446 24.8366345,17.6418 C24.8366345,17.739 24.7394345,17.9334 24.5936345,18.1278 C24.4478345,18.3222 24.2534345,19.0026 24.3020345,19.197 C24.3506345,19.3914 24.7880345,19.6344 24.7880345,19.7316 C24.7880345,19.7964 24.8042345,20.2014 24.8366345,20.9466 C25.1930345,21.4002 25.3712345,21.6756 25.3712345,21.7728 C25.3712345,21.9186 25.3712345,22.3074 25.3712345,22.5018 C25.3712345,22.6962 25.5656345,22.7934 25.5656345,22.7934 C25.5656345,22.7934 25.6466345,22.7934 25.8086345,22.7934 C26.1650345,22.4694 26.5700345,22.0806 27.0236345,21.627 C27.7040345,20.9466 28.7732345,18.8568 29.3078345,17.1558 C29.8424345,15.4548 29.7938345,12.5874 29.5508345,11.3238 C29.3078345,10.0602 28.7246345,8.991 28.6274345,8.991 Z" id="路径-46"></path>
                </g>
            </g>
        </g>
    </g>
</svg>