<?xml version="1.0" encoding="UTF-8"?>
<svg width="36px" height="36px" viewBox="0 0 36 36" version="1.1" xmlns="http://www.w3.org/2000/svg" xmlns:xlink="http://www.w3.org/1999/xlink">
    <!-- Generator: Sketch 61.2 (89653) - https://sketch.com -->
    <title>编组 31</title>
    <desc>Created with Sketch.</desc>
    <g id="页面-1" stroke="none" stroke-width="1" fill="none" fill-rule="evenodd">
        <g id="编组-31">
            <rect id="矩形备份-26" fill="#696969" opacity="0.85" x="0" y="0" width="36" height="36" rx="4"></rect>
            <g id="编组-28" opacity="0.3" transform="translate(7.000000, 3.000000)">
                <path d="M5.6133,0 L4.9896,0.2079 L4.26195,0.4158 L3.7422,0.4158 L3.43035,0.8316 L2.9106,1.2474 L2.80665,1.55925 L2.4948,1.2474 L2.2869,1.6632 L1.97505,1.8711 L2.079,2.18295 L2.079,2.7027 L2.2869,3.01455 L1.8711,3.63825 L1.55925,3.9501 L1.14345,4.158 L0.6237,4.67775 L0.31185,4.9896 L-1.62494018e-14,5.1975 L-1.62494018e-14,5.50935 L0.10395,5.71725 L0.10395,6.34095 L0.2079,6.54885 L0.6237,6.54885 L0.51975,6.75675 L0.2079,7.2765 L0.2079,7.6923 L0.2079,7.9002 L0.10395,8.21205 L0.31185,8.316 L0.6237,8.5239 L0.93555,9.1476 L1.2474,9.5634 L2.079,10.1871 L2.39085,10.8108 L2.9106,11.4345 L3.7422,11.8503 L4.26195,11.95425 L4.7817,12.16215 L5.1975,12.8898 L5.4054,13.3056 L5.4054,14.1372 L5.50935,14.86485 L5.30145,15.28065 L5.09355,15.48855 L5.1975,15.90435 L5.30145,16.4241 L5.1975,17.8794 L4.9896,18.2952 L4.9896,18.60705 L5.09355,19.02285 L5.09355,19.43865 L5.1975,19.85445 L5.09355,20.27025 L4.9896,20.68605 L4.88565,20.89395 L4.9896,22.0374 L4.88565,22.55715 L4.88565,22.869 L5.1975,23.0769 L5.4054,23.59665 L5.50935,24.7401 L5.6133,24.948 L5.92515,24.948 L6.13305,24.84405 L6.13305,25.25985 L6.0291,25.67565 L6.237,25.9875 L5.92515,25.88355 L5.6133,25.7796 L5.6133,26.09145 L5.6133,26.6112 L5.92515,26.71515 L5.92515,27.027 L6.237,27.027 L6.34095,27.33885 L6.34095,27.6507 L6.4449,28.17045 L6.8607,28.37835 L7.17255,28.58625 L7.38045,28.6902 L7.4844,28.79415 L7.4844,29.20995 L7.6923,29.41785 L8.00415,29.41785 L8.21205,29.5218 L8.7318,29.83365 L9.04365,29.83365 L9.3555,29.7297 L9.1476,29.41785 L8.62785,29.106 L8.316,28.6902 L8.21205,28.37835 L8.316,27.96255 L8.21205,27.6507 L8.5239,27.4428 L8.7318,27.2349 L8.62785,26.8191 L8.9397,26.50725 L9.1476,26.4033 L9.1476,26.09145 L9.04365,25.9875 L8.62785,25.7796 L8.5239,25.5717 C8.4546,25.4331 8.4546,25.32915 8.5239,25.25985 C8.62785,25.1559 8.9397,25.05195 9.04365,24.948 C9.1476,24.84405 9.25155,24.63615 9.25155,24.5322 C9.25155,24.4629 9.32085,24.35895 9.45945,24.22035 C9.25155,24.08175 9.1476,23.9778 9.1476,23.9085 C9.1476,23.8392 9.18225,23.562 9.25155,23.0769 C9.32085,22.9383 9.39015,22.869 9.45945,22.869 C9.5634,22.869 9.5634,22.97295 9.66735,22.97295 C9.7713,22.97295 10.08315,22.76505 10.1871,22.55715 C10.29105,22.34925 10.1871,22.2453 10.29105,22.14135 C10.395,22.0374 10.70685,22.34925 10.8108,22.2453 C10.91475,22.14135 11.6424,21.72555 11.6424,21.6216 C11.6424,21.51765 11.6424,21.30975 11.6424,21.2058 C11.6424,21.10185 11.4345,20.79 11.4345,20.79 C11.4345,20.79 11.3652,20.68605 11.2266,20.47815 C11.0187,20.40885 10.91475,20.33955 10.91475,20.27025 C10.91475,20.1663 10.91475,20.06235 11.0187,19.9584 C11.088,19.8891 11.19195,19.8891 11.33055,19.9584 C11.46915,20.0277 11.53845,20.06235 11.53845,20.06235 C11.53845,20.06235 11.95425,19.7505 12.0582,19.64655 C12.1275,19.57725 12.2661,19.2654 12.474,18.711 L12.99375,18.60705 L13.61745,18.39915 C13.89465,17.98335 14.0679,17.77545 14.1372,17.77545 C14.24115,17.77545 14.65695,17.6715 14.7609,17.56755 C14.86485,17.4636 15.07275,16.73595 15.1767,16.73595 C15.246,16.73595 15.48855,16.59735 15.90435,16.32015 L16.32015,16.11225 C16.59735,15.97365 16.73595,15.90435 16.73595,15.90435 C16.73595,15.90435 17.0478,15.8697 17.6715,15.8004 C18.1566,15.7311 18.46845,15.62715 18.60705,15.48855 C18.81495,15.28065 19.02285,14.9688 19.1268,14.7609 C19.23075,14.553 19.23075,14.24115 19.3347,14.24115 C19.404,14.24115 19.5426,14.1372 19.7505,13.9293 C20.0277,13.167 20.20095,12.71655 20.27025,12.57795 C20.3742,12.37005 20.47815,12.0582 20.5821,11.95425 C20.68605,11.8503 20.89395,11.74635 20.9979,11.6424 C21.10185,11.53845 21.4137,11.53845 21.51765,11.4345 C21.58695,11.3652 21.6909,11.26125 21.8295,11.12265 L22.2453,10.91475 L22.2453,9.7713 C22.3146,9.6327 22.27995,9.52875 22.14135,9.45945 C22.00275,9.39015 21.6909,9.2862 21.2058,9.1476 C20.8593,8.7318 20.6514,8.5239 20.5821,8.5239 C20.5128,8.5239 20.27025,8.41995 19.85445,8.21205 L19.5426,7.79625 C19.1268,7.93485 18.88425,7.9695 18.81495,7.9002 C18.74565,7.8309 18.5031,7.6923 18.0873,7.4844 C17.9487,7.4151 17.84475,7.38045 17.77545,7.38045 C17.6715,7.38045 17.4636,7.17255 17.4636,7.17255 C17.4636,7.17255 17.325,7.03395 17.0478,6.75675 L16.52805,6.237 L15.90435,6.237 L15.8004,5.92515 L15.3846,5.92515 L15.07275,6.0291 L14.9688,6.237 L14.65695,6.237 L14.3451,6.6528 L14.24115,6.8607 L14.03325,6.75675 L14.03325,6.34095 L14.3451,5.92515 L14.7609,5.71725 L14.86485,5.4054 L14.7609,4.9896 L14.24115,4.46985 L13.61745,3.5343 L12.16215,3.3264 L11.95425,2.9106 L11.0187,2.18295 L10.70685,1.97505 L10.1871,1.6632 L9.7713,1.14345 L9.04365,1.0395 L8.5239,1.0395 L8.00415,0.72765 L7.2765,0.4158 L6.54885,0.4158 L5.92515,0.6237 L5.92515,0.93555 L5.6133,0.8316 L5.6133,0 Z" id="路径-108" fill="#FFFFFF"></path>
                <polyline id="路径-109" stroke="#6C6C6C" stroke-width="0.5775" points="5.6133 0.51975 5.09355 1.14345 5.09355 1.76715 5.1975 2.2869 5.71725 2.4948 6.54885 2.7027 6.8607 3.01455 7.17255 3.22245 7.4844 3.1185 7.9002 3.43035 7.6923 4.05405 7.4844 4.3659 6.96465 4.46985 6.54885 4.3659 6.34095 4.5738 6.34095 4.88565 6.13305 5.1975 6.13305 5.8212 6.0291 6.4449 5.8212 6.75675 5.50935 6.6528 5.50935 6.34095 5.71725 6.13305 5.71725 5.92515 5.1975 5.6133 4.9896 5.6133 4.5738 5.71725 4.158 5.1975 3.84615 4.7817 3.3264 4.5738 2.9106 4.26195 2.7027 4.3659 2.4948 4.05405 1.97505 3.5343"></polyline>
                <polyline id="路径-110" stroke="#6C6C6C" stroke-width="0.5775" points="3.5343 4.67775 3.3264 5.1975 3.01455 5.50935 2.7027 5.8212 2.079 5.92515 1.8711 6.13305 1.35135 6.96465 0.8316 6.8607 0.6237 6.75675"></polyline>
                <polyline id="路径-111" stroke="#6C6C6C" stroke-width="0.5775" points="5.92515 6.6528 5.6133 7.0686 4.9896 7.0686 4.46985 7.2765 4.26195 7.58835 3.9501 7.79625 3.7422 7.9002 3.63825 8.5239 3.84615 8.83575 4.05405 9.3555 4.5738 9.45945 5.09355 9.5634 5.30145 9.87525 5.92515 9.9792 6.237 10.29105 6.237 10.70685 6.237 11.0187 6.34095 11.12265 6.237 11.4345 6.13305 11.6424 6.13305 12.16215 6.13305 12.57795 6.0291 12.78585 5.50935 13.0977 5.30145 13.0977"></polyline>
                <polyline id="路径-112" stroke="#6C6C6C" stroke-width="0.5775" points="6.0291 9.9792 6.54885 9.66735 6.8607 9.66735 7.2765 9.25155 7.6923 9.1476 8.00415 9.25155 8.00415 9.5634 8.00415 9.87525 8.41995 10.1871 9.04365 10.395 9.25155 10.8108 9.87525 10.8108 10.395 11.0187 10.49895 11.53845 10.49895 11.95425 11.0187 12.0582 11.2266 12.37005 11.33055 12.78585 11.0187 12.99375 10.395 12.8898 9.66735 13.0977 9.3555 13.40955 9.3555 13.9293 8.9397 14.24115 8.41995 14.24115 8.00415 14.24115 7.58835 14.1372 7.2765 14.24115 6.96465 14.553 6.6528 14.24115 6.54885 13.82535 6.54885 12.99375 6.13305 12.57795"></polyline>
                <polyline id="路径-113" stroke="#6C6C6C" stroke-width="0.5775" points="6.96465 14.553 6.8607 15.5925 6.6528 16.0083 6.6528 16.632 6.34095 17.15175 6.237 17.6715 6.237 18.0873 6.13305 18.711 6.13305 19.3347 6.237 19.85445 6.13305 20.5821 6.0291 21.6216 5.92515 22.2453 6.0291 23.7006 6.34095 24.01245 6.6528 24.63615 6.75675 25.5717 6.75675 26.50725 6.8607 27.33885 7.17255 27.75465 7.79625 28.2744 8.21205 28.37835"></polyline>
                <polyline id="路径-114" stroke="#6C6C6C" stroke-width="0.5775" points="9.1476 14.1372 9.1476 14.44905 9.66735 14.9688 10.6029 15.3846 10.49895 16.0083 10.395 16.32015 11.12265 16.32015 11.8503 16.0083 12.16215 15.5925 12.37005 14.9688 11.8503 14.1372 11.12265 14.03325 11.0187 13.3056 11.0187 12.99375"></polyline>
                <polyline id="路径-115" stroke="#6C6C6C" stroke-width="0.5775" points="12.0582 15.69645 12.2661 16.32015 12.0582 16.632 11.4345 16.73595 11.0187 17.35965 10.49895 17.98335 10.29105 18.81495 10.395 19.43865 11.0187 19.9584"></polyline>
                <polyline id="路径-116" stroke="#6C6C6C" stroke-width="0.5775" points="11.0187 17.4636 11.4345 17.98335 11.8503 18.2952 12.37005 18.60705 12.474 18.711"></polyline>
            </g>
        </g>
    </g>
</svg>