<?xml version="1.0" encoding="UTF-8"?>
<svg width="36px" height="36px" viewBox="0 0 36 36" version="1.1" xmlns="http://www.w3.org/2000/svg" xmlns:xlink="http://www.w3.org/1999/xlink">
    <!-- Generator: Sketch 61.2 (89653) - https://sketch.com -->
    <title>编组 21</title>
    <desc>Created with Sketch.</desc>
    <g id="页面-1" stroke="none" stroke-width="1" fill="none" fill-rule="evenodd">
        <g id="编组-21">
            <rect id="矩形备份-26" fill="#003B6A" opacity="0.85" x="0" y="0" width="36" height="36" rx="4"></rect>
            <g id="编组-18" opacity="0.3" transform="translate(3.000000, 5.000000)">
                <path d="M11.8943235,4.04 C11.5943235,4.16 11.2043235,4.25 10.7243235,4.31 C10.0043235,4.4 9.37432349,4.76 9.28432349,5.03 C9.19432349,5.3 9.10432349,5.39 9.10432349,5.57 C9.10432349,5.75 9.19432349,6.11 9.28432349,6.29 C9.37432349,6.47 9.01432349,7.19 9.28432349,7.28 C9.55432349,7.37 10.0043235,7.64 10.2743235,7.64 C10.5443235,7.64 11.4443235,7.64 11.5343235,7.46 C11.6243235,7.28 11.6243235,6.74 12.0743235,6.74 C12.3743235,6.74 12.5843235,6.83 12.7043235,7.01 C12.8243235,7.61 13.0043235,8.03 13.2443235,8.27 C13.4843235,8.51 13.6643235,8.66 13.7843235,8.72 C13.7843235,8.96 13.7843235,9.08 13.7843235,9.08 C13.7843235,9.08 14.2343235,9.26 14.4143235,9.26 C14.5943235,9.26 14.5043235,8.9 14.8643235,8.9 C15.2243235,8.9 15.3143235,9.08 15.5843235,8.9 C15.8543235,8.72 15.8543235,8.36 15.8543235,7.91 C15.8543235,7.46 15.6743235,7.28 15.8543235,7.01 C16.0343235,6.74 16.2143235,6.83 16.2143235,6.47 C16.2143235,6.11 16.0343235,5.93 16.0343235,5.84 C16.0343235,5.75 15.6743235,5.75 15.8543235,5.21 C16.0343235,4.67 15.7643235,4.67 16.0343235,4.49 C16.3043235,4.31 16.4843235,4.04 16.8443235,4.04 C17.2043235,4.04 18.0143235,3.23 18.0143235,3.23 C18.0143235,3.23 18.2843235,2.87 18.5543235,2.87 C18.8243235,2.87 19.3643235,2.51 19.6343235,2.87 C19.9043235,3.23 20.2643235,3.41 20.0843235,3.68 C19.9043235,3.95 19.4543235,3.59 19.0943235,4.04 C18.7343235,4.49 18.0143235,4.67 18.0143235,4.85 C18.0143235,5.03 18.3743235,5.84 18.5543235,5.84 C18.7343235,5.84 19.4543235,6.11 19.6343235,6.11 C19.8143235,6.11 20.3543235,6.02 20.6243235,6.02 C20.8943235,6.02 21.7943235,6.02 22.0643235,5.84 C22.3343235,5.66 23.2343235,4.67 23.2343235,4.67 C23.2343235,4.67 23.3243235,4.58 23.2343235,4.31 C23.1443235,4.04 22.6943235,4.22 22.6943235,3.86 C22.6943235,3.5 22.2443235,2.87 22.2443235,2.6 C22.2443235,2.33 21.8843235,2.15 21.8843235,2.06 C21.8843235,1.97 21.3443235,1.52 21.3443235,1.43 C21.3443235,1.34 21.3443235,0.62 21.3443235,0.53 C21.3443235,0.44 20.8043235,0.08 20.4443235,0.08 C20.0843235,0.08 19.4543235,-0.1 19.0943235,0.08 C18.7343235,0.26 17.6543235,0.53 17.3843235,0.53 C17.1143235,0.53 16.3943235,0.71 16.2143235,0.8 C16.0343235,0.89 15.3143235,1.07 14.8643235,1.43 C14.4143235,1.79 13.7843235,2.06 13.5143235,2.33 C13.2443235,2.6 12.5243235,3.23 12.4343235,3.41 C12.3743235,3.53 12.1943235,3.68 11.8943235,3.86 L11.8943235,4.04 Z" id="路径-15" fill="#FFFFFF"></path>
                <path d="M1.36432349,9.98 C1.27432349,10.07 1.18432349,10.16 1.09432349,10.07 C1.00432349,9.98 0.464323488,9.8 0.374323488,9.89 C0.284323488,9.98 -0.0756765123,10.43 0.0143234877,10.52 C0.104323488,10.61 0.284323488,10.79 0.464323488,10.79 C0.644323488,10.79 0.734323488,10.97 0.734323488,11.06 C0.734323488,11.15 0.554323488,11.33 0.374323488,11.42 C0.194323488,11.51 0.194323488,11.69 0.284323488,11.78 C0.374323488,11.87 0.464323488,11.87 0.734323488,11.87 C1.00432349,11.87 1.54432349,11.87 1.72432349,11.78 C1.90432349,11.69 1.99432349,11.69 2.17432349,11.69 C2.35432349,11.69 2.35432349,11.42 2.53432349,11.33 C2.71432349,11.24 2.71432349,10.97 2.71432349,10.79 C2.71432349,10.61 2.71432349,10.61 2.80432349,10.43 C2.89432349,10.25 2.98432349,10.07 3.07432349,9.98 C3.16432349,9.89 2.89432349,9.62 2.80432349,9.53 C2.71432349,9.44 2.53432349,9.26 2.35432349,9.26 C2.17432349,9.26 1.36432349,9.44 1.36432349,9.53 C1.36432349,9.62 1.45432349,9.89 1.36432349,9.98 Z" id="路径-16" fill="#FFFFFF"></path>
                <path d="M4.06432349,7.64 C4.15432349,7.55 4.06432349,7.55 4.24432349,7.37 C4.42432349,7.19 4.33432349,7.1 4.33432349,7.1 C4.33432349,7.1 3.79432349,7.1 3.70432349,7.1 C3.61432349,7.1 3.16432349,7.55 3.16432349,7.73 C3.16432349,7.91 3.07432349,8 3.07432349,8.09 C3.07432349,8.18 3.16432349,8.45 3.16432349,8.54 C3.16432349,8.63 3.16432349,8.9 3.16432349,9.08 C3.16432349,9.26 3.34432349,9.17 3.43432349,9.17 C3.52432349,9.17 3.25432349,9.62 3.43432349,9.71 C3.61432349,9.8 3.88432349,9.8 3.97432349,9.8 C4.03432349,9.8 4.09432349,9.86 4.15432349,9.98 C4.27432349,10.28 4.39432349,10.46 4.51432349,10.52 C4.69432349,10.61 4.78432349,10.79 4.69432349,10.79 C4.60432349,10.79 4.06432349,10.7 3.97432349,10.79 C3.88432349,10.88 3.52432349,10.79 3.52432349,10.97 C3.52432349,11.15 3.70432349,11.15 3.70432349,11.33 C3.70432349,11.51 3.16432349,11.6 3.16432349,11.69 C3.16432349,11.78 3.07432349,12.05 3.25432349,12.05 C3.43432349,12.05 3.61432349,12.05 3.79432349,12.05 C3.97432349,12.05 3.97432349,12.05 4.15432349,12.05 C4.33432349,12.05 4.51432349,12.14 4.42432349,12.23 C4.33432349,12.32 4.15432349,12.32 3.97432349,12.32 C3.79432349,12.32 3.70432349,12.32 3.61432349,12.41 C3.52432349,12.5 3.25432349,12.5 3.16432349,12.68 C3.07432349,12.86 2.80432349,13.04 2.89432349,13.04 C2.98432349,13.04 3.25432349,13.04 3.34432349,13.04 C3.43432349,13.04 3.70432349,12.95 3.79432349,12.95 C3.88432349,12.95 4.15432349,12.86 4.24432349,12.77 C4.33432349,12.68 4.60432349,12.77 4.69432349,12.77 C4.78432349,12.77 4.96432349,12.77 5.14432349,12.77 C5.32432349,12.77 5.50432349,12.68 5.95432349,12.68 C6.40432349,12.68 6.76432349,12.5 6.85432349,12.41 C6.94432349,12.32 6.85432349,12.23 6.85432349,12.23 C6.85432349,12.23 6.85432349,12.23 6.76432349,12.14 C6.67432349,12.05 6.58432349,11.96 6.58432349,11.96 C6.58432349,11.96 7.03432349,11.6 7.03432349,11.51 C7.03432349,11.42 7.03432349,11.24 6.85432349,11.15 C6.67432349,11.06 6.58432349,10.88 6.49432349,10.97 C6.43432349,11.03 6.34432349,11.09 6.22432349,11.15 C6.10432349,11.03 6.04432349,10.97 6.04432349,10.97 C6.04432349,10.97 6.07432349,10.88 6.13432349,10.7 C5.89432349,10.28 5.77432349,10.07 5.77432349,10.07 C5.77432349,10.07 5.23432349,9.8 5.23432349,9.71 C5.23432349,9.65 5.14432349,9.44 4.96432349,9.08 C4.84432349,8.72 4.78432349,8.54 4.78432349,8.54 C4.78432349,8.54 5.05432349,8.18 5.05432349,8.09 C5.05432349,8.03 5.05432349,7.94 5.05432349,7.82 C4.87432349,7.76 4.75432349,7.73 4.69432349,7.73 C4.63432349,7.73 4.48432349,7.76 4.24432349,7.82 C4.06432349,7.76 4.00432349,7.7 4.06432349,7.64 Z" id="路径-17" fill="#FFFFFF"></path>
                <path d="M3.79432349,14.66 C4.06432349,14.84 4.33432349,15.02 4.51432349,15.02 C4.69432349,15.02 4.69432349,15.11 4.96432349,15.38 C5.23432349,15.65 5.23432349,15.83 5.32432349,15.92 C5.41432349,16.01 5.68432349,15.92 5.77432349,16.19 C5.86432349,16.46 5.95432349,16.73 5.86432349,17 C5.77432349,17.27 5.50432349,17.81 5.50432349,17.99 C5.50432349,18.17 5.14432349,18.53 5.05432349,18.53 C4.99432349,18.53 3.91432349,18.53 1.81432349,18.53 C1.45432349,18.47 1.24432349,18.44 1.18432349,18.44 C1.12432349,18.44 0.914323488,18.59 0.554323488,18.89 L0.554323488,20.06 C0.554323488,20.42 0.524323488,20.72 0.464323488,20.96 C0.404323488,21.2 0.254323488,21.56 0.0143234877,22.04 C0.194323488,22.46 0.284323488,22.7 0.284323488,22.76 C0.284323488,22.82 0.314323488,23.03 0.374323488,23.39 L0.194323488,23.93 C0.674323488,23.87 0.944323488,23.84 1.00432349,23.84 C1.09432349,23.84 1.36432349,23.75 1.63432349,23.75 C1.90432349,23.75 2.26432349,23.84 2.35432349,24.02 C2.41432349,24.14 2.47432349,24.35 2.53432349,24.65 L3.07432349,24.47 L3.79432349,24.29 L4.78432349,23.93 L5.50432349,23.3 C5.80432349,23.18 5.95432349,23.06 5.95432349,22.94 C5.95432349,22.76 6.13432349,22.13 6.04432349,22.04 C5.95432349,21.95 5.86432349,21.77 5.95432349,21.59 C6.01432349,21.47 6.28432349,21.17 6.76432349,20.69 L6.94432349,20.33 C7.54432349,20.21 7.87432349,20.09 7.93432349,19.97 C8.02432349,19.79 8.29432349,19.61 8.29432349,19.61 C8.29432349,19.61 8.29432349,19.49 8.29432349,19.25 C8.71432349,19.13 8.98432349,19.04 9.10432349,18.98 C9.28432349,18.89 9.73432349,18.71 9.73432349,18.71 C9.73432349,18.71 9.91432349,18.62 10.0043235,18.62 C10.0943235,18.62 10.3643235,18.62 10.4543235,18.62 C10.5443235,18.62 10.5443235,18.44 10.4543235,18.35 C10.3643235,18.26 10.2743235,18.08 10.2743235,17.99 C10.2743235,17.9 10.3643235,17.63 10.4543235,17.54 C10.5143235,17.48 10.6043235,17.45 10.7243235,17.45 C10.7243235,17.69 10.7243235,17.84 10.7243235,17.9 C10.7243235,17.99 10.9943235,18.17 10.9943235,18.17 C10.9943235,18.17 11.2643235,18.08 11.3543235,17.99 C11.4443235,17.9 11.6243235,17.72 11.7143235,17.72 C11.8043235,17.72 11.9843235,17.54 12.1643235,17.63 C12.3443235,17.72 12.8843235,18.08 12.9743235,18.17 C13.0643235,18.26 13.5143235,18.98 13.6043235,19.07 C13.6943235,19.16 13.9643235,19.07 14.0543235,19.25 C14.1443235,19.43 14.5043235,19.61 14.5943235,19.79 C14.6843235,19.97 14.8643235,20.42 14.9543235,20.42 C15.0443235,20.42 15.7643235,20.6 15.7643235,20.6 C15.7643235,20.6 16.5743235,21.05 16.5743235,21.14 C16.5743235,21.23 16.9343235,21.86 16.9343235,21.95 C16.9343235,22.04 16.9343235,22.13 16.9343235,22.22 C16.9343235,22.28 16.9043235,22.4 16.8443235,22.58 L16.7543235,22.94 L17.0243235,22.85 C17.1443235,22.73 17.2343235,22.61 17.2943235,22.49 C17.3843235,22.31 17.5643235,21.95 17.5643235,21.95 C17.5643235,21.95 17.5643235,21.59 17.4743235,21.59 C17.4143235,21.59 17.3243235,21.5 17.2043235,21.32 C17.3243235,20.96 17.4143235,20.78 17.4743235,20.78 C17.5343235,20.78 17.6243235,20.78 17.7443235,20.78 L18.0143235,20.87 C18.0143235,20.81 17.9843235,20.75 17.9243235,20.69 C17.8343235,20.6 17.6543235,20.51 17.6543235,20.51 C17.6543235,20.51 17.4743235,20.42 17.1143235,20.24 C16.8743235,20.18 16.7543235,20.12 16.7543235,20.06 C16.7543235,19.97 16.7543235,19.88 16.7543235,19.88 C16.7543235,19.88 16.7243235,19.82 16.6643235,19.7 C16.4243235,19.64 16.2443235,19.61 16.1243235,19.61 C15.9443235,19.61 15.7643235,19.34 15.6743235,19.25 C15.5843235,19.16 15.0443235,18.17 14.9543235,18.17 C14.8943235,18.17 14.7143235,18.08 14.4143235,17.9 C14.2943235,17.72 14.2343235,17.63 14.2343235,17.63 C14.2343235,17.63 14.1443235,17.27 14.2343235,17.18 C14.3243235,17.09 14.4143235,16.73 14.5043235,16.73 C14.5943235,16.73 14.6843235,16.82 14.8643235,16.64 C14.9843235,16.52 15.0743235,16.49 15.1343235,16.55 C15.1343235,16.79 15.1343235,16.91 15.1343235,16.91 C15.1343235,16.91 15.1343235,17 15.2243235,17 C15.2843235,17 15.4343235,16.97 15.6743235,16.91 L15.8543235,17.45 L16.1243235,17.63 L16.2143235,17.99 L16.5743235,18.17 C16.7543235,18.29 16.9043235,18.38 17.0243235,18.44 C17.2043235,18.53 17.2943235,18.44 17.3843235,18.53 C17.4743235,18.62 17.7443235,18.89 17.8343235,18.89 C17.9243235,18.89 18.4643235,18.89 18.5543235,18.89 C18.6443235,18.89 18.9143235,19.16 18.9143235,19.34 C18.9143235,19.52 19.0043235,19.7 19.0043235,19.79 C19.0043235,19.88 19.1843235,20.33 19.1843235,20.6 C19.1843235,20.87 19.2743235,21.05 19.3643235,21.14 C19.4543235,21.23 19.5443235,21.23 19.5443235,21.32 C19.5443235,21.41 19.2743235,21.59 19.4543235,21.68 C19.6343235,21.77 19.7243235,21.77 19.8143235,21.77 C19.8743235,21.77 19.9943235,21.86 20.1743235,22.04 C20.3543235,22.1 20.4443235,22.16 20.4443235,22.22 C20.4443235,22.31 20.3543235,22.31 20.4443235,22.4 C20.5043235,22.46 20.6243235,22.49 20.8043235,22.49 C20.9243235,22.61 20.9843235,22.67 20.9843235,22.67 C20.9843235,22.67 20.5343235,22.67 20.5343235,22.76 C20.5343235,22.82 20.5043235,22.91 20.4443235,23.03 C20.6843235,23.21 20.8043235,23.33 20.8043235,23.39 C20.8043235,23.45 20.8343235,23.51 20.8943235,23.57 L21.1643235,23.75 C21.2243235,23.75 21.2843235,23.78 21.3443235,23.84 C21.4343235,23.93 21.4343235,23.93 21.5243235,23.93 C21.6143235,23.93 21.6143235,23.93 21.6143235,23.75 C21.6143235,23.57 21.4343235,23.48 21.5243235,23.39 C21.5843235,23.33 21.6743235,23.3 21.7943235,23.3 L21.7943235,22.94 L22.0643235,22.94 C22.2443235,23 22.3343235,23.03 22.3343235,23.03 C22.3343235,23.03 22.4243235,22.76 22.3343235,22.67 C22.2443235,22.58 21.9743235,22.31 21.8843235,22.31 C21.8243235,22.31 21.7343235,22.25 21.6143235,22.13 C21.4343235,21.83 21.3443235,21.68 21.3443235,21.68 C21.3443235,21.68 21.3443235,21.41 21.2543235,21.32 C21.1643235,21.23 20.9843235,21.05 21.0743235,20.96 C21.1343235,20.9 21.2243235,20.87 21.3443235,20.87 C21.5243235,21.05 21.6143235,21.11 21.6143235,21.05 C21.6143235,20.96 21.7943235,20.87 21.8843235,20.78 C21.9443235,20.72 22.0043235,20.66 22.0643235,20.6 C22.2443235,20.54 22.3643235,20.51 22.4243235,20.51 C22.5143235,20.51 22.8743235,20.6 22.9643235,20.51 C23.0543235,20.42 23.3243235,20.24 23.3243235,20.15 C23.3243235,20.06 23.2343235,19.7 23.4143235,19.61 C23.5343235,19.55 23.7143235,19.55 23.9543235,19.61 C24.1343235,19.67 24.2543235,19.7 24.3143235,19.7 C24.3743235,19.7 24.4043235,19.61 24.4043235,19.43 L24.2243235,19.07 L24.3143235,18.8 C24.4343235,18.56 24.4943235,18.41 24.4943235,18.35 C24.4943235,18.29 24.5243235,18.2 24.5843235,18.08 L24.7643235,17.72 C24.8243235,17.42 24.8843235,17.21 24.9443235,17.09 C25.0343235,16.91 25.1243235,16.73 25.2143235,16.64 C25.3043235,16.55 25.2143235,16.55 25.4843235,16.28 C25.7543235,16.01 25.7543235,16.01 26.0243235,15.83 C26.2943235,15.65 26.2943235,15.65 26.5643235,15.65 C26.8343235,15.65 26.8343235,15.65 26.9243235,15.74 C27.0143235,15.83 26.6543235,15.83 26.7443235,16.01 C26.8343235,16.19 27.1943235,16.37 27.3743235,16.28 C27.5543235,16.19 27.8243235,16.19 27.7343235,16.28 C27.6443235,16.37 27.1943235,16.73 27.1943235,16.73 C27.1943235,16.73 27.5543235,16.91 27.5543235,16.91 C27.5543235,16.91 27.6143235,16.97 27.7343235,17.09 L27.9143235,17.45 L28.3643235,17.45 L28.6343235,17.18 L29.0843235,17.09 L29.8043235,17.09 C29.7443235,16.91 29.6843235,16.82 29.6243235,16.82 C29.5343235,16.82 29.3543235,16.73 29.1743235,16.73 C29.0543235,16.73 28.8443235,16.73 28.5443235,16.73 L28.0943235,16.37 L28.0043235,16.19 C28.3643235,16.13 28.6043235,16.1 28.7243235,16.1 C28.9043235,16.1 29.1743235,16.1 29.3543235,16.01 C29.4743235,15.95 29.6243235,15.83 29.8043235,15.65 L30.0743235,15.47 L30.2543235,14.93 C30.4943235,14.81 30.6743235,14.72 30.7943235,14.66 C30.9143235,14.6 30.9443235,14.45 30.8843235,14.21 L30.6143235,13.67 L30.7943235,13.4 L30.7043235,13.22 L29.8943235,13.04 L29.5343235,12.86 L29.0843235,12.59 L28.5443235,12.86 C28.2443235,12.74 28.0943235,12.68 28.0943235,12.68 C28.0943235,12.68 27.7343235,12.5 27.7343235,12.41 C27.7343235,12.32 27.7343235,12.23 27.7343235,12.05 C27.7343235,11.93 27.6143235,11.84 27.3743235,11.78 L27.0143235,11.78 C27.0143235,11.84 26.9843235,11.81 26.9243235,11.69 C26.8643235,11.57 26.8943235,11.42 27.0143235,11.24 L26.4743235,10.97 C26.1743235,10.91 25.9643235,10.88 25.8443235,10.88 C25.7243235,10.88 25.5443235,10.91 25.3043235,10.97 L25.1243235,10.7 C25.0043235,10.46 24.9743235,10.31 25.0343235,10.25 C25.1243235,10.16 25.4843235,10.34 25.4843235,10.34 C25.4843235,10.34 25.6043235,10.34 25.8443235,10.34 C26.0243235,10.28 26.1143235,10.22 26.1143235,10.16 C26.1143235,10.1 26.0543235,10.01 25.9343235,9.89 C25.5743235,9.71 25.3943235,9.62 25.3943235,9.62 C25.3943235,9.62 24.7643235,9.44 24.7643235,9.44 C24.7643235,9.44 24.5843235,9.32 24.2243235,9.08 C24.1043235,8.84 24.0443235,8.72 24.0443235,8.72 C24.0443235,8.72 24.0743235,8.66 24.1343235,8.54 L23.8643235,8.27 L23.5943235,8.36 C23.4743235,8.48 23.3843235,8.54 23.3243235,8.54 C23.2643235,8.54 23.0843235,8.51 22.7843235,8.45 L22.4243235,8.36 C22.2443235,7.94 22.1543235,7.7 22.1543235,7.64 C22.1543235,7.58 22.2143235,7.31 22.3343235,6.83 C22.1543235,6.65 21.9743235,6.59 21.7943235,6.65 C21.5243235,6.74 21.2543235,6.74 20.9843235,6.74 C20.8043235,6.74 20.5043235,6.74 20.0843235,6.74 C19.9643235,6.98 19.9043235,7.1 19.9043235,7.1 C19.9043235,7.1 20.1743235,7.46 20.2643235,7.55 C20.3543235,7.64 20.5343235,7.73 20.4443235,8 C20.3543235,8.27 20.0843235,8.36 19.9943235,8.36 C19.9043235,8.36 19.8143235,8.09 19.6343235,8 C19.5143235,7.94 19.3643235,7.91 19.1843235,7.91 L18.7343235,8.45 L18.7343235,9.17 L19.0043235,9.62 C18.7643235,9.8 18.6143235,9.89 18.5543235,9.89 C18.4943235,9.89 18.3443235,10.01 18.1043235,10.25 C17.8043235,10.31 17.6243235,10.31 17.5643235,10.25 C17.4743235,10.16 17.4743235,10.25 17.4743235,10.07 C17.4743235,9.95 17.4143235,9.86 17.2943235,9.8 L16.7543235,9.8 C16.4543235,9.92 16.2743235,10.01 16.2143235,10.07 C16.1543235,10.13 15.8243235,10.22 15.2243235,10.34 L14.8643235,10.52 C14.6843235,10.4 14.5343235,10.31 14.4143235,10.25 C14.2943235,10.19 13.9043235,10.25 13.2443235,10.43 L11.8943235,10.25 L11.5343235,9.89 C11.5343235,10.19 11.4743235,10.4 11.3543235,10.52 C11.2343235,10.64 11.0543235,10.7 10.8143235,10.7 C10.5743235,10.94 10.3343235,11.06 10.0943235,11.06 C9.73432349,11.06 9.82432349,11.15 9.73432349,11.24 C9.64432349,11.33 9.64432349,11.6 9.46432349,11.6 C9.28432349,11.6 9.37432349,11.42 9.10432349,11.42 C8.92432349,11.42 8.77432349,11.51 8.65432349,11.69 L8.74432349,12.23 L8.29432349,12.32 C7.93432349,12.5 7.75432349,12.59 7.75432349,12.59 C7.75432349,12.59 7.48432349,12.86 7.39432349,12.95 C7.30432349,13.04 7.30432349,13.22 7.03432349,13.31 C6.85432349,13.37 6.58432349,13.46 6.22432349,13.58 L5.59432349,13.94 L5.50432349,13.67 L5.23432349,13.58 C5.29432349,13.94 5.29432349,14.18 5.23432349,14.3 C5.17432349,14.42 4.99432349,14.42 4.69432349,14.3 L3.97432349,14.21 C3.67432349,14.39 3.61432349,14.54 3.79432349,14.66 Z" id="路径-18" fill="#FFFFFF"></path>
                <path d="M12.6143235,6.83 C12.6743235,6.53 12.7643235,6.29 12.8843235,6.11 C13.0643235,5.84 13.1543235,5.3 13.0643235,5.03 C12.9743235,4.76 12.7043235,4.4 12.8843235,4.22 C13.0643235,4.04 13.1543235,3.86 13.5143235,3.68 C13.8743235,3.5 13.8743235,3.41 13.9643235,3.05 C14.0543235,2.69 13.9643235,2.6 14.3243235,2.42 C14.5643235,2.3 14.7143235,2.12 14.7743235,1.88 L15.8543235,1.34 C16.0343235,1.46 16.1543235,1.52 16.2143235,1.52 C16.2743235,1.52 16.5743235,1.4 17.1143235,1.16 C17.2943235,1.34 17.4443235,1.43 17.5643235,1.43 C17.6843235,1.43 17.9543235,1.52 18.3743235,1.7 L18.7343235,2.24 L18.8243235,2.78" id="路径-19" stroke="#5786B1" stroke-width="0.5"></path>
                <path d="M17.1143235,1.16 C17.1143235,1.04 17.1743235,0.98 17.2943235,0.98 C17.4143235,0.98 17.5943235,0.98 17.8343235,0.98 C18.2543235,1.04 18.4943235,1.1 18.5543235,1.16 C18.6443235,1.25 19.0043235,1.25 19.0943235,1.25 C19.1843235,1.25 19.1843235,1.52 19.3643235,1.52 C19.4843235,1.52 19.7543235,1.22 20.1743235,0.62 C20.1743235,0.56 20.2643235,0.5 20.4443235,0.44 C20.6243235,0.38 20.8643235,0.41 21.1643235,0.53 L21.3443235,0.71" id="路径-20" stroke="#5786B1" stroke-width="0.5"></path>
                <path d="M0.644323488,19.61 C0.764323488,19.79 0.944323488,19.88 1.18432349,19.88 C1.42432349,19.88 1.57432349,19.88 1.63432349,19.88 L1.90432349,19.97 L1.90432349,20.15 L1.63432349,20.6 L1.63432349,21.59 L1.27432349,21.77 C1.45432349,22.13 1.54432349,22.37 1.54432349,22.49 C1.54432349,22.67 1.27432349,22.67 1.27432349,22.85 C1.27432349,22.97 1.33432349,23.06 1.45432349,23.12 L1.18432349,23.75" id="路径-21" stroke="#5786B1" stroke-width="0.5"></path>
                <path d="M5.23432349,18.44 C5.41432349,18.68 5.59432349,18.83 5.77432349,18.89 C6.04432349,18.98 6.13432349,19.07 6.40432349,19.07 C6.67432349,19.07 6.58432349,18.98 6.85432349,19.07 C7.12432349,19.16 7.03432349,19.25 7.30432349,19.25 C7.48432349,19.25 7.72432349,19.25 8.02432349,19.25 C8.32432349,19.07 8.50432349,18.95 8.56432349,18.89 C8.65432349,18.8 8.83432349,18.62 9.01432349,18.53 C9.13432349,18.47 9.31432349,18.41 9.55432349,18.35 L10.0943235,18.62" id="路径-22" stroke="#5786B1" stroke-width="0.5"></path>
                <path d="M10.7243235,17.45 C10.6643235,17.27 10.6343235,17.15 10.6343235,17.09 C10.6343235,17 10.7243235,17 10.7243235,16.82 C10.7243235,16.7 10.6343235,16.52 10.4543235,16.28 C10.2143235,16.1 10.0943235,16.04 10.0943235,16.1 C10.0943235,16.19 10.0043235,16.28 9.91432349,16.28 C9.82432349,16.28 9.91432349,15.92 10.0043235,15.74 C10.0643235,15.62 10.1843235,15.47 10.3643235,15.29 C10.4243235,15.17 10.5143235,15.11 10.6343235,15.11 C10.8143235,15.11 10.7243235,14.39 10.8143235,14.3 C10.8743235,14.24 10.9643235,14.15 11.0843235,14.03 C10.9043235,13.91 10.7543235,13.85 10.6343235,13.85 C10.5143235,13.85 10.3343235,13.79 10.0943235,13.67 C10.0343235,13.49 9.97432349,13.34 9.91432349,13.22 C9.82432349,13.04 9.82432349,12.95 9.82432349,12.77 C9.82432349,12.65 9.85432349,12.44 9.91432349,12.14 C9.97432349,12.02 10.0643235,11.93 10.1843235,11.87 C10.3643235,11.78 10.3643235,11.87 10.3643235,11.69 C10.3643235,11.57 10.3343235,11.48 10.2743235,11.42 L10.3643235,11.06" id="路径-23" stroke="#5786B1" stroke-width="0.5"></path>
                <path d="M8.65432349,12.23 C8.95432349,12.35 9.13432349,12.41 9.19432349,12.41 C9.25432349,12.41 9.46432349,12.47 9.82432349,12.59" id="路径-24" stroke="#5786B1" stroke-width="0.5"></path>
                <path d="M7.93432349,12.59 C8.05432349,12.77 8.17432349,12.89 8.29432349,12.95 C8.47432349,13.04 8.56432349,13.04 8.65432349,13.13 C8.71432349,13.19 8.83432349,13.28 9.01432349,13.4 C9.19432349,13.58 9.31432349,13.67 9.37432349,13.67 C9.46432349,13.67 9.64432349,13.67 9.73432349,13.67 C9.79432349,13.67 9.91432349,13.64 10.0943235,13.58" id="路径-25" stroke="#5786B1" stroke-width="0.5"></path>
                <path d="M10.7243235,15.11 C11.0243235,15.23 11.2643235,15.29 11.4443235,15.29 C11.6243235,15.29 11.8043235,15.29 11.9843235,15.29 C12.1043235,15.29 12.2243235,15.29 12.3443235,15.29 C12.5243235,15.29 12.7043235,15.38 12.8843235,15.29 C13.0643235,15.2 12.9743235,15.2 13.2443235,15.2 C13.5143235,15.2 13.6943235,15.2 13.6943235,15.2 C13.6943235,15.2 13.9643235,15.11 13.9643235,15.11 C13.9643235,15.11 14.2343235,14.93 14.3243235,14.75 C14.3843235,14.63 14.5343235,14.51 14.7743235,14.39 C14.8343235,14.21 14.8343235,14.09 14.7743235,14.03 C14.6843235,13.94 14.3243235,13.67 14.1443235,13.58 C13.9643235,13.49 13.8743235,13.13 13.7843235,13.04 C13.6943235,12.95 13.9643235,12.86 14.1443235,12.86 C14.2643235,12.86 14.5043235,12.77 14.8643235,12.59 L15.0443235,12.5 L15.3143235,12.59 C15.1343235,12.11 15.0443235,11.84 15.0443235,11.78 C15.0443235,11.72 15.0443235,11.63 15.0443235,11.51 C14.8643235,11.27 14.7743235,11.15 14.7743235,11.15 C14.7743235,11.15 14.7443235,11.09 14.6843235,10.97 L14.8643235,10.52" id="路径-26" stroke="#5786B1" stroke-width="0.5"></path>
                <path d="M10.6343235,16.55 C10.7543235,16.55 10.8743235,16.55 10.9943235,16.55 C11.1143235,16.55 11.2643235,16.43 11.4443235,16.19 C11.5043235,16.25 11.5643235,16.31 11.6243235,16.37 C11.7143235,16.46 11.8943235,16.46 11.9843235,16.46 C12.0743235,16.46 11.9843235,16.1 12.2543235,16.1 C12.4343235,16.1 12.5543235,16.07 12.6143235,16.01 L12.7943235,15.92 C13.0343235,15.86 13.1843235,15.83 13.2443235,15.83 C13.3043235,15.83 13.4843235,15.8 13.7843235,15.74 C14.0243235,15.8 14.1443235,15.83 14.1443235,15.83 C14.1443235,15.83 14.4143235,16.01 14.5043235,16.01 C14.5643235,16.01 14.6543235,16.07 14.7743235,16.19 L14.9543235,16.55" id="路径-27" stroke="#5786B1" stroke-width="0.5"></path>
                <path d="M12.1643235,15.29 C12.1043235,15.35 12.1043235,15.41 12.1643235,15.47 C12.2243235,15.53 12.3443235,15.62 12.5243235,15.74 C12.7043235,15.8 12.7943235,15.86 12.7943235,15.92" id="路径-28" stroke="#5786B1" stroke-width="0.5"></path>
                <path d="M15.3143235,12.59 C15.4943235,12.71 15.6443235,12.77 15.7643235,12.77 C15.9443235,12.77 16.2143235,12.86 16.3043235,12.86 C16.3943235,12.86 16.3943235,12.95 16.4843235,12.95 C16.5443235,12.95 16.6943235,12.95 16.9343235,12.95 L17.4743235,13.22 L17.9243235,13.49 C18.1643235,13.55 18.3143235,13.58 18.3743235,13.58 C18.4643235,13.58 18.8243235,13.58 18.9143235,13.58 C19.0043235,13.58 19.1843235,13.58 19.2743235,13.58 C19.3643235,13.58 19.5443235,13.49 19.6343235,13.58 C19.7243235,13.67 19.9043235,13.76 19.9943235,13.76 C20.0843235,13.76 20.3543235,13.85 20.3543235,13.67 C20.3543235,13.49 20.4443235,13.22 20.5343235,13.22 C20.5943235,13.22 20.6843235,13.1 20.8043235,12.86 C20.9243235,12.74 20.9543235,12.65 20.8943235,12.59 C20.8043235,12.5 20.4443235,12.41 20.4443235,12.23 C20.4443235,12.11 20.3843235,11.87 20.2643235,11.51 C20.2043235,11.33 20.2043235,11.24 20.2643235,11.24 C20.3543235,11.24 20.4443235,11.06 20.4443235,10.97 C20.4443235,10.88 20.1743235,10.52 20.1743235,10.43 C20.1743235,10.34 19.8143235,10.25 19.8143235,10.16 C19.8143235,10.07 19.5443235,9.98 19.4543235,9.98 C19.3643235,9.98 19.2743235,10.07 19.1843235,10.07 C19.0943235,10.07 18.9143235,10.16 18.8243235,10.16 C18.7643235,10.16 18.6743235,10.16 18.5543235,10.16 L18.3743235,10.07" id="路径-29" stroke="#5786B1" stroke-width="0.5"></path>
                <path d="M18.9143235,9.71 C19.0343235,9.71 19.1243235,9.71 19.1843235,9.71 C19.2743235,9.71 19.3643235,9.71 19.4543235,9.71 C19.5443235,9.71 19.7243235,9.71 19.7243235,9.8 C19.7243235,9.86 19.7243235,9.95 19.7243235,10.07" id="路径-30" stroke="#5786B1" stroke-width="0.5"></path>
                <path d="M18.7343235,9.17 C18.9743235,8.87 19.1543235,8.72 19.2743235,8.72 C19.4543235,8.72 19.8143235,8.72 19.9043235,8.72 C19.9943235,8.72 20.5343235,8.9 20.7143235,8.9 C20.8943235,8.9 21.1643235,9.08 21.3443235,9.08 C21.5243235,9.08 21.9743235,9.17 22.0643235,9.17 C22.1543235,9.17 22.0643235,9.08 22.2443235,8.99 C22.4243235,8.9 22.5143235,8.9 22.5143235,8.81 C22.5143235,8.75 22.5443235,8.63 22.6043235,8.45" id="路径-31" stroke="#5786B1" stroke-width="0.5"></path>
                <path d="M19.9943235,10.34 C20.3543235,10.4 20.5643235,10.43 20.6243235,10.43 C20.7143235,10.43 21.0743235,10.43 21.1643235,10.43 C21.2543235,10.43 21.1643235,10.16 21.2543235,10.07 C21.3443235,9.98 21.5243235,9.62 21.7043235,9.62 C21.8843235,9.62 21.9743235,9.71 22.0643235,9.53 C22.1243235,9.41 22.1243235,9.29 22.0643235,9.17" id="路径-32" stroke="#5786B1" stroke-width="0.5"></path>
                <path d="M20.4443235,12.05 C20.6843235,11.99 20.8643235,11.93 20.9843235,11.87 C21.1643235,11.78 21.4343235,11.78 21.5243235,11.78 C21.6143235,11.78 22.0643235,11.96 22.2443235,11.96 C22.3643235,11.96 22.6643235,12.02 23.1443235,12.14 C23.2643235,12.02 23.3543235,11.96 23.4143235,11.96 C23.5043235,11.96 23.9543235,11.87 24.0443235,11.87 C24.1043235,11.87 24.2843235,11.84 24.5843235,11.78 C24.8243235,11.9 24.9743235,11.93 25.0343235,11.87 C25.0943235,11.81 25.1243235,11.69 25.1243235,11.51 C25.0043235,11.27 24.9743235,11.12 25.0343235,11.06 C25.0943235,11 25.1843235,10.97 25.3043235,10.97" id="路径-33" stroke="#5786B1" stroke-width="0.5"></path>
                <path d="M14.8643235,14.3 C15.1043235,14.3 15.2543235,14.3 15.3143235,14.3 C15.4043235,14.3 15.2243235,14.03 15.4943235,13.94 C15.7643235,13.85 15.8543235,14.03 15.9443235,14.03 C16.0043235,14.03 16.2143235,14.12 16.5743235,14.3 C16.6943235,14.54 16.8143235,14.63 16.9343235,14.57 C17.0543235,14.51 17.1743235,14.39 17.2943235,14.21 C17.5343235,14.03 17.6843235,13.91 17.7443235,13.85 C17.8043235,13.79 17.8643235,13.67 17.9243235,13.49" id="路径-34" stroke="#5786B1" stroke-width="0.5"></path>
                <path d="M14.7743235,16.19 C15.1343235,16.19 15.4043235,16.13 15.5843235,16.01 C15.8543235,15.83 16.1243235,15.74 16.2143235,15.74 C16.3043235,15.74 16.5743235,15.65 16.6643235,15.47 C16.7243235,15.35 16.7243235,15.23 16.6643235,15.11 C16.5443235,14.99 16.5143235,14.93 16.5743235,14.93 C16.6643235,14.93 16.9343235,14.93 16.9343235,14.93 C16.9343235,14.93 16.9643235,14.78 17.0243235,14.48" id="路径-35" stroke="#5786B1" stroke-width="0.5"></path>
                <path d="M16.3943235,15.74 C16.2389785,15.8422007 16.6643235,15.92 16.7543235,16.01 C16.8443235,16.1 17.1143235,16.19 17.2043235,16.28 C17.2943235,16.37 17.4743235,16.46 17.6543235,16.46 C17.8343235,16.46 18.0143235,16.46 18.1043235,16.37 C18.1943235,16.28 18.6443235,16.28 18.7343235,16.28 C18.8243235,16.28 19.1843235,16.28 19.2743235,16.19 C19.3643235,16.1 19.6343235,16.01 19.7243235,15.74 C19.8143235,15.47 19.8143235,15.47 19.9043235,15.29 C19.9643235,15.17 20.0543235,14.99 20.1743235,14.75 C20.1743235,14.57 20.1743235,14.48 20.1743235,14.48 C20.1743235,14.48 19.9943235,14.39 19.9943235,14.3 C19.9943235,14.24 20.0543235,14.06 20.1743235,13.76" id="路径-36" stroke="#5786B1" stroke-width="0.5"></path>
                <path d="M16.9343235,14.93 C17.2343235,14.99 17.4443235,15.02 17.5643235,15.02 C17.7443235,15.02 17.7443235,14.93 17.9243235,14.75 C18.1043235,14.57 18.2843235,14.57 18.3743235,14.57 C18.4643235,14.57 18.6443235,14.48 18.7343235,14.39 C18.8243235,14.3 19.0043235,14.3 19.0943235,14.21 C19.1543235,14.15 19.3643235,14.18 19.7243235,14.3 L20.0843235,14.39 C20.2043235,14.57 20.3243235,14.66 20.4443235,14.66 C20.6243235,14.66 20.8943235,14.66 21.0743235,14.66 C21.2543235,14.66 21.9743235,14.48 22.2443235,14.48 C22.5143235,14.48 22.7843235,14.48 22.9643235,14.48 C23.1443235,14.48 23.1443235,14.48 23.3243235,14.48 C23.5043235,14.48 23.5943235,14.21 23.7743235,14.21 C23.9543235,14.21 24.2243235,14.39 24.4043235,14.48 C24.5843235,14.57 24.8543235,14.84 24.8543235,15.02 C24.8543235,15.2 24.9443235,15.56 25.0343235,15.65 C25.0943235,15.71 25.1543235,15.89 25.2143235,16.19 L25.3043235,16.37" id="路径-37" stroke="#5786B1" stroke-width="0.5"></path>
                <path d="M23.1443235,14.48 C23.3843235,14.72 23.5043235,14.87 23.5043235,14.93 C23.5043235,15.02 23.8643235,15.38 23.8643235,15.56 C23.8643235,15.74 23.8643235,16.1 23.9543235,16.19 C24.0443235,16.28 24.2243235,16.46 24.2243235,16.55 C24.2243235,16.64 24.3143235,16.91 24.4043235,16.91 C24.4943235,16.91 24.6743235,16.73 24.7643235,16.73 C24.8243235,16.73 24.9743235,16.7 25.2143235,16.64" id="路径-38" stroke="#5786B1" stroke-width="0.5"></path>
                <path d="M19.2743235,16.19 C19.3343235,16.37 19.4243235,16.55 19.5443235,16.73 C19.7243235,17 19.9043235,17.36 20.0843235,17.45 C20.2643235,17.54 20.4443235,17.72 20.5343235,17.72 C20.6243235,17.72 21.2543235,18.17 21.4343235,18.17 C21.6143235,18.17 22.6043235,18.17 22.7843235,18.08 C22.9643235,17.99 23.1443235,17.99 23.2343235,17.9 C23.3243235,17.81 23.5043235,17.72 23.6843235,17.81 C23.8643235,17.9 23.8643235,17.99 24.1343235,17.99 C24.3143235,17.99 24.4643235,17.99 24.5843235,17.99" id="路径-39" stroke="#5786B1" stroke-width="0.5"></path>
                <path d="M20.8043235,17.9 C20.8043235,18.08 20.8043235,18.23 20.8043235,18.35 C20.8043235,18.53 20.9843235,18.62 20.9843235,18.8 C20.9843235,18.98 20.8043235,19.16 20.8943235,19.25 C20.9843235,19.34 21.0743235,19.52 21.1643235,19.61 C21.2243235,19.67 21.2543235,19.79 21.2543235,19.97 C21.1343235,20.09 21.0743235,20.15 21.0743235,20.15 C21.0743235,20.15 20.7143235,20.24 20.7143235,20.24 C20.7143235,20.24 20.4443235,20.33 20.3543235,20.33 C20.2643235,20.33 20.2643235,20.33 20.1743235,20.42 C20.1143235,20.48 20.0543235,20.6 19.9943235,20.78 C20.0543235,21.02 20.0243235,21.17 19.9043235,21.23 C19.7843235,21.29 19.6643235,21.35 19.5443235,21.41" id="路径-40" stroke="#5786B1" stroke-width="0.5"></path>
                <path d="M18.8243235,19.16 C18.9443235,19.1 19.0643235,19.1 19.1843235,19.16 C19.3643235,19.25 19.3643235,19.34 19.4543235,19.52 C19.5443235,19.7 19.7243235,19.97 19.8143235,20.06 C19.8743235,20.12 19.9943235,20.24 20.1743235,20.42" id="路径-41" stroke="#5786B1" stroke-width="0.5"></path>
                <path d="M21.2543235,19.97 C21.1671992,19.979171 21.5243235,19.97 21.6143235,19.97 C21.7043235,19.97 21.7043235,19.7 21.8843235,19.7 C22.0643235,19.7 22.0643235,19.88 22.2443235,19.88 C22.4243235,19.88 22.7843235,19.88 22.7843235,19.88 C22.7843235,19.88 22.8743235,19.88 23.0543235,19.88 L23.3243235,19.79" id="路径-42" stroke="#5786B1" stroke-width="0.5"></path>
            </g>
        </g>
    </g>
</svg>