<?xml version="1.0" encoding="UTF-8"?>
<svg width="36px" height="36px" viewBox="0 0 36 36" version="1.1" xmlns="http://www.w3.org/2000/svg" xmlns:xlink="http://www.w3.org/1999/xlink">
    <!-- Generator: Sketch 61.2 (89653) - https://sketch.com -->
    <title>编组 33</title>
    <desc>Created with Sketch.</desc>
    <g id="页面-1" stroke="none" stroke-width="1" fill="none" fill-rule="evenodd">
        <g id="编组-33">
            <g id="编组-27">
                <rect id="矩形备份-100" fill="rgba(90,90,90)" opacity="0.9" x="0" y="0" width="36" height="36" rx="4"></rect>
                <g id="编组-24" opacity="0.3" transform="translate(5.000000, 6.000000)">
                    <path d="M6.624,0.672 L5.952,0.672 L5.76,0.48 L5.472,0.288 L4.992,0.864 L4.608,1.152 L3.936,1.344 L3.84,1.92 L3.456,2.592 L2.4,3.264 L1.92,3.648 L1.056,4.896 L0.384,5.568 L0.384,6.144 L0.576,6.912 L0.384,7.296 L0.384,7.584 L3.55271368e-14,7.872 L3.55271368e-14,8.256 L3.55271368e-14,8.736 L3.55271368e-14,9.12 L0.384,9.6 L0.864,9.888 L0.864,10.56 L1.056,10.848 L1.728,11.808 L2.4,12.384 L2.88,12.384 L3.36,12.768 L3.936,12.384 L5.28,12.384 L6.24,12.384 L6.816,12.48 L7.008,12.096 L7.584,11.808 L8.256,12.192 L8.256,12.576 L8.736,12.576 L9.312,12.672 L9.792,12.96 L9.696,13.344 L9.888,14.112 L9.792,14.592 L9.6,14.784 L10.08,15.648 L10.56,16.032 L11.04,16.8 L11.424,17.568 L11.328,18.24 L11.424,18.912 L11.04,19.872 L10.848,20.544 L10.752,21.408 L11.136,22.176 L12,23.712 L12,24.192 L12.192,25.056 L12.576,25.536 L13.152,26.304 L13.248,26.784 L13.344,27.552 L13.824,27.744 L14.88,27.648 L15.84,27.552 L16.704,26.976 L16.8,26.496 L16.896,26.208 L16.704,25.92 L16.896,25.536 L17.472,25.536 L18.144,25.632 L18.528,25.248 L18.528,24.864 L18.24,24.864 L17.856,24.672 L18.048,24.192 L18.336,24.192 L19.2,24.096 L19.584,23.808 L19.584,23.328 L19.488,22.848 L19.392,22.464 L19.776,21.984 L20.352,21.312 L21.216,20.928 C21.536,20.608 21.728,20.384 21.792,20.256 C21.888,20.064 22.08,19.2 21.984,19.2 C21.92,19.2 21.824,18.944 21.696,18.432 L21.408,17.568 L21.792,16.128 L22.08,15.456 L22.656,14.688 L23.328,14.016 C24.16,13.44 24.672,12.992 24.864,12.672 C25.056,12.352 25.248,11.808 25.44,11.04 L25.92,10.272 L25.824,9.696 C25.696,9.632 25.536,9.632 25.344,9.696 C25.152,9.76 24.864,9.888 24.48,10.08 L23.424,10.272 L22.944,9.792 L21.984,8.352 L21.408,7.872 L20.832,7.296 L20.448,6.816 L20.352,6.144 L19.776,5.376 L19.392,4.608 L18.912,3.936 L18.816,3.456 L19.104,3.072 L19.008,2.592 L18.624,2.4 L16.992,2.208 L16.032,2.208 L15.456,2.208 L14.88,1.824 L14.496,1.824 L14.016,2.016 L13.92,2.208 L13.824,2.496 L13.344,2.688 L13.056,2.4 L12.48,2.304 L12,1.728 L11.04,1.632 L10.944,1.152 L10.848,0.672 L10.944,0.48 L10.752,0.192 L10.464,-1.56319402e-13 L10.08,0.096 L9.12,0.096 C8.096,0.096 7.52,0.16 7.392,0.288 C7.264,0.416 7.008,0.544 6.624,0.672 Z" id="路径-84备份" fill="#FFFFFF"></path>
                    <path d="M24.672,19.872 C24.416,20.256 24.192,20.512 24,20.64 C23.712,20.832 23.328,20.736 23.136,21.12 C23.008,21.376 22.944,21.728 22.944,22.176 L22.752,22.752 L22.464,23.424 L22.464,24.48 C22.848,24.48 23.072,24.48 23.136,24.48 C23.232,24.48 23.808,24.192 23.808,24.096 C23.808,24 24.48,22.56 24.672,22.368 C24.864,22.176 25.344,21.12 25.344,21.12 C25.344,21.12 25.344,20.864 25.344,20.352 C25.344,20.032 25.344,19.808 25.344,19.68 C25.344,19.552 25.216,19.552 24.96,19.68 L24.672,19.872 Z" id="路径-85备份" fill="#FFFFFF"></path>
                    <path d="M2.304,3.36 L3.744,3.456 L3.936,2.976 C4.384,2.72 4.64,2.592 4.704,2.592 C4.8,2.592 5.376,2.496 5.568,2.304 C5.696,2.176 5.888,1.984 6.144,1.728 C6.336,1.856 6.496,1.888 6.624,1.824 C6.816,1.728 6.624,1.44 6.624,1.344 C6.624,1.28 6.624,1.056 6.624,0.672" id="路径-86备份" stroke="#5786B1" stroke-width="0.5"></path>
                    <path d="M3.744,3.456 L3.648,3.936 C3.584,4 3.488,4.032 3.36,4.032 C3.232,4.032 2.944,4.032 2.496,4.032 L2.4,4.416 C2.336,4.8 2.272,5.024 2.208,5.088 C2.112,5.184 1.92,5.28 1.92,5.28 C1.92,5.28 1.888,5.408 1.824,5.664 C1.696,5.728 1.6,5.76 1.536,5.76 C1.472,5.76 1.12,5.76 0.48,5.76" id="路径-87备份" stroke="#5786B1" stroke-width="0.5"></path>
                    <polyline id="路径-88备份" stroke="#5786B1" stroke-width="0.5" points="3.744 3.552 7.008 6.24 7.296 6.528 7.488 6.528 7.68 6.816 7.776 7.008 8.16 6.912 8.64 6.72 10.944 5.376 10.944 5.088 10.656 4.992 10.464 4.896 10.272 4.416 10.08 4.128 10.272 4.032 10.368 3.264 10.368 2.88 10.272 2.304 9.792 1.632 9.792 1.248 9.984 0.96 9.984 0.384 10.08 0.096"></polyline>
                    <polyline id="路径-89备份" stroke="#5786B1" stroke-width="0.5" points="11.04 1.632 10.944 1.824 10.752 2.016 10.56 2.208 10.56 2.4 10.464 2.592 10.368 2.688"></polyline>
                    <polyline id="路径-90备份" stroke="#5786B1" stroke-width="0.5" points="4.896 4.512 4.416 4.512 4.32 7.68 4.32 8.064 4.128 8.256 2.016 8.256 1.728 8.448 1.248 8.064 0.576 8.064 0.096 8.256"></polyline>
                    <polyline id="路径-91备份" stroke="#5786B1" stroke-width="0.5" points="1.728 8.448 1.728 8.928 1.92 9.216 1.92 9.408 1.536 9.408 1.056 9.312 0.576 9.312 0.288 9.504"></polyline>
                    <polyline id="路径-92备份" stroke="#5786B1" stroke-width="0.5" points="1.92 9.408 2.208 9.504 2.496 9.504 2.784 9.504 2.976 10.08 3.072 10.272 3.36 10.272 4.128 10.272 4.224 9.888 4.512 9.504 5.088 9.024 5.856 8.544 6.528 8.544 6.912 8.448 7.488 8.352 8.064 8.064 8.064 7.008"></polyline>
                    <polyline id="路径-93备份" stroke="#5786B1" stroke-width="0.5" points="11.04 5.28 11.424 5.472 11.712 5.664 11.904 5.568 12.192 5.472 12.48 5.376 13.44 5.76 14.4 6.336 15.072 6.624 15.36 6.816 15.552 6.624 15.744 6.624 15.744 4.224 15.744 2.976 15.648 2.688 15.648 2.208"></polyline>
                    <polyline id="路径-94备份" stroke="#5786B1" stroke-width="0.5" points="15.744 5.856 18.528 5.856 18.912 5.952 19.2 5.76 19.68 5.376"></polyline>
                    <polyline id="路径-95备份" stroke="#5786B1" stroke-width="0.5" points="15.456 6.72 15.456 8.352 15.168 8.448 14.688 9.024 14.688 9.408 14.496 9.696 14.976 9.696 15.072 10.176 15.36 10.56 15.36 11.04 15.936 11.328 16.224 11.712 16.704 12.192 16.896 12.576 17.28 12.672 17.856 12.768 18.144 13.056 18.624 12.96 19.488 12.864 19.872 12.672 19.968 12.576 19.968 12.384 19.68 12 19.392 11.616 19.008 11.52 19.008 11.232 19.2 11.136 19.392 11.04 19.392 10.464 19.488 10.176 19.776 9.984 19.968 9.408 20.16 9.024 20.16 8.64 20.16 8.256 20.256 7.968 20.736 7.584 20.928 7.392"></polyline>
                    <polyline id="路径-96备份" stroke="#5786B1" stroke-width="0.5" points="20.16 8.928 20.64 8.928 20.832 8.736 21.12 8.832 21.504 8.736 21.984 9.024 22.272 9.216 22.56 9.216"></polyline>
                    <polyline id="路径-97备份" stroke="#5786B1" stroke-width="0.5" points="22.56 9.216 22.56 9.696 22.464 9.888 22.56 10.176 22.752 10.368 23.04 10.752 23.52 10.944 24.192 11.136 24.576 11.328 24.48 11.424 24.288 11.712 23.904 12.192 23.52 12.48 23.136 12.48 22.752 12.672 22.368 12.864 21.984 12.768 21.696 12.96 21.408 13.152 21.12 13.056 20.832 12.96 20.544 12.672 20.256 12.768 19.968 12.576"></polyline>
                    <polyline id="路径-98备份" stroke="#5786B1" stroke-width="0.5" points="22.368 12.864 22.176 13.344 22.08 13.632 22.08 14.688 22.368 15.072"></polyline>
                    <polyline id="路径-99备份" stroke="#5786B1" stroke-width="0.5" points="19.584 12.864 19.584 13.152 19.776 13.44 19.776 13.824 19.584 14.208 19.392 14.496 19.392 14.784 19.872 15.168 20.256 15.36 20.64 15.648 20.928 16.032 21.216 16.128 21.696 16.32"></polyline>
                    <polyline id="路径-100备份" stroke="#5786B1" stroke-width="0.5" points="18.144 13.056 18.144 13.44 18.24 13.632 18.144 13.92 17.952 14.016 17.664 14.304 17.664 14.784 17.952 14.88 18.624 14.88 19.488 14.88"></polyline>
                    <polyline id="路径-101备份" stroke="#5786B1" stroke-width="0.5" points="18.048 14.88 18.144 15.264 17.952 15.552 17.952 15.744 17.856 16.128 17.568 16.32 17.664 16.608 17.664 16.896 17.952 17.376 18.048 17.76 18.528 17.952 19.008 18.24 19.104 18.72 19.104 18.912 19.68 19.008 20.064 19.008 20.64 19.104 21.024 18.816 21.6 18.816 21.792 18.624"></polyline>
                    <polyline id="路径-102备份" stroke="#5786B1" stroke-width="0.5" points="17.952 17.664 17.568 17.664 17.376 17.856 17.28 18.24 17.28 18.912 17.28 19.296 17.76 19.488 17.472 19.68 17.088 19.392 16.704 19.104 16.32 19.104 15.744 18.912 15.456 18.72 14.88 18.72 14.784 18.144 14.688 17.856 14.688 17.472 14.496 17.184 13.92 17.184 13.728 17.376 12.96 17.664 12.864 17.184 12.576 16.8 11.904 16.608 11.328 16.704 11.04 16.8"></polyline>
                    <polyline id="路径-103备份" stroke="#5786B1" stroke-width="0.5" points="15.456 18.816 15.456 19.296 15.264 19.488 14.688 19.488 14.688 20.256 14.688 21.024 15.168 21.216 15.552 21.312 16.128 21.408 16.608 21.408 16.992 21.024 17.376 20.64 17.76 20.448 18.24 20.256 19.008 19.68 19.104 19.104 19.104 18.912"></polyline>
                    <polyline id="路径-104备份" stroke="#5786B1" stroke-width="0.5" points="17.664 20.448 18.048 20.64 18.336 20.736 18.72 21.024 18.72 21.6 18.72 22.08 18.816 22.368 18.432 22.56 18.432 22.944 18.144 23.136 17.568 23.04 17.184 23.136 16.896 23.04 16.704 22.464 16.416 22.08 16.032 21.696 15.84 21.408 15.36 21.504 14.976 21.504 14.496 21.504 14.016 21.312 13.344 21.312 12.672 21.12 11.712 21.12 11.328 21.024 10.848 21.12"></polyline>
                    <polyline id="路径-105备份" stroke="#5786B1" stroke-width="0.5" points="14.304 21.504 14.304 22.464 14.208 22.848 14.016 22.944 13.824 23.712 13.92 25.344 13.632 25.632 13.344 25.536 12.864 25.344 12.672 25.536"></polyline>
                    <polyline id="路径-106备份" stroke="#5786B1" stroke-width="0.5" points="13.824 24 14.304 24.576 14.304 24.768 14.592 24.768 15.072 24.384 15.168 24.288 15.552 24.384 15.84 24.384 16.032 24 16.512 23.712 16.992 23.04"></polyline>
                    <polyline id="路径-107备份" stroke="#5786B1" stroke-width="0.5" points="18.144 23.136 18.24 23.904 18.336 24.192"></polyline>
                </g>
            </g>
        </g>
    </g>
</svg>